<?xml version="1.0" encoding="UTF-8" standalone="no"?>
<!-- Created with Inkscape (http://www.inkscape.org/) -->

<svg
   xmlns:dc="http://purl.org/dc/elements/1.1/"
   xmlns:cc="http://creativecommons.org/ns#"
   xmlns:rdf="http://www.w3.org/1999/02/22-rdf-syntax-ns#"
   xmlns:svg="http://www.w3.org/2000/svg"
   xmlns="http://www.w3.org/2000/svg"
   xmlns:sodipodi="http://sodipodi.sourceforge.net/DTD/sodipodi-0.dtd"
   xmlns:inkscape="http://www.inkscape.org/namespaces/inkscape"
   width="233.2749mm"
   height="194.90994mm"
   viewBox="0 0 233.2749 194.90994"
   version="1.1"
   id="svg8"
   inkscape:version="0.92.4 (unknown)"
   sodipodi:docname="score_icon.svg">
  <defs
     id="defs2">
    <inkscape:path-effect
       effect="bspline"
       id="path-effect1220"
       is_visible="true"
       weight="33.333333"
       steps="2"
       helper_size="0"
       apply_no_weight="true"
       apply_with_weight="true"
       only_selected="false" />
    <inkscape:path-effect
       effect="bspline"
       id="path-effect1197"
       is_visible="true"
       weight="33.333333"
       steps="2"
       helper_size="0"
       apply_no_weight="true"
       apply_with_weight="true"
       only_selected="false" />
    <inkscape:path-effect
       effect="bspline"
       id="path-effect911"
       is_visible="true"
       weight="33.333333"
       steps="2"
       helper_size="0"
       apply_no_weight="true"
       apply_with_weight="true"
       only_selected="false" />
    <inkscape:path-effect
       effect="bspline"
       id="path-effect833"
       is_visible="true"
       weight="33.333333"
       steps="2"
       helper_size="0"
       apply_no_weight="true"
       apply_with_weight="true"
       only_selected="false" />
    <inkscape:path-effect
       effect="bspline"
       id="path-effect833-3"
       is_visible="true"
       weight="33.333333"
       steps="2"
       helper_size="0"
       apply_no_weight="true"
       apply_with_weight="true"
       only_selected="false" />
    <inkscape:path-effect
       effect="bspline"
       id="path-effect833-7"
       is_visible="true"
       weight="33.333333"
       steps="2"
       helper_size="0"
       apply_no_weight="true"
       apply_with_weight="true"
       only_selected="false" />
    <inkscape:path-effect
       effect="bspline"
       id="path-effect833-7-3"
       is_visible="true"
       weight="33.333333"
       steps="2"
       helper_size="0"
       apply_no_weight="true"
       apply_with_weight="true"
       only_selected="false" />
  </defs>
  <sodipodi:namedview
     id="base"
     pagecolor="#ffffff"
     bordercolor="#666666"
     borderopacity="1.0"
     inkscape:pageopacity="0.0"
     inkscape:pageshadow="2"
     inkscape:zoom="0.49497475"
     inkscape:cx="517.28631"
     inkscape:cy="112.39828"
     inkscape:document-units="mm"
     inkscape:current-layer="layer1"
     showgrid="true"
     inkscape:window-width="1920"
     inkscape:window-height="1056"
     inkscape:window-x="0"
     inkscape:window-y="24"
     inkscape:window-maximized="1"
     fit-margin-top="0"
     fit-margin-left="0"
     fit-margin-right="0"
     fit-margin-bottom="0">
    <inkscape:grid
       type="xygrid"
       id="grid815"
       originx="-44.073747"
       originy="-43.817735" />
  </sodipodi:namedview>
  <metadata
     id="metadata5">
    <rdf:RDF>
      <cc:Work
         rdf:about="">
        <dc:format>image/svg+xml</dc:format>
        <dc:type
           rdf:resource="http://purl.org/dc/dcmitype/StillImage" />
        <dc:title></dc:title>
      </cc:Work>
    </rdf:RDF>
  </metadata>
  <g
     inkscape:label="Layer 1"
     inkscape:groupmode="layer"
     id="layer1"
     transform="translate(-44.073749,-58.27232)">
    <path
       style="fill:none;fill-opacity:1;stroke:#ff3830;stroke-width:5.465;stroke-linecap:butt;stroke-linejoin:miter;stroke-miterlimit:4;stroke-dasharray:none;stroke-opacity:1"
       d="m 121.70833,127.66667 c -12.57757,7.18718 -24.694128,14.11093 -36.159707,11.46501 -11.465579,-2.64591 -22.048645,-14.99281 -23.746536,-27.4555 -1.69789,-12.46269 5.22587,-24.579272 14.927169,-32.516615 9.701299,-7.937343 22.048834,-11.46521 32.262684,-11.612894 10.21386,-0.147684 19.77208,3.675605 25.06365,10.730943 5.29157,7.055339 7.05548,17.638837 4.4097,28.222236 -2.64579,10.58339 -9.7012,21.16651 -14.04792,26.45833 -4.34672,5.29182 -6.23655,5.29182 -8.0007,5.29182"
       id="path831"
       inkscape:connector-curvature="0"
       inkscape:path-effect="#path-effect833"
       inkscape:original-d="m 121.70833,127.66667 c -12.72493,6.92929 -24.694177,14.11084 -37.041664,21.16666 -10.583339,-12.3478 -21.166402,-24.69471 -31.75,-37.04166 C 59.846482,99.066224 67.028041,87.096956 74.083332,74.75 86.430505,71.222046 98.77804,67.694179 111.125,64.166667 c 8.06355,3.275444 17.63915,7.055289 26.45833,10.583333 1.76413,10.582902 3.52804,21.166402 5.29167,31.75 -7.05544,10.58328 -14.11085,21.1664 -21.16667,31.75 -1.63768,0.8817 -3.52751,-2.7e-4 -5.29166,0"
       inkscape:export-xdpi="13.738527"
       inkscape:export-ydpi="13.738527" />
    <path
       transform="translate(-3.3333334e-6,111.125)"
       style="fill:none;fill-opacity:1;stroke:#ff3830;stroke-width:5.365;stroke-linecap:butt;stroke-linejoin:miter;stroke-miterlimit:4;stroke-dasharray:none;stroke-opacity:1"
       d="m 121.70833,127.66667 c -12.57757,7.18718 -24.694128,14.11093 -36.159707,11.46501 -11.465579,-2.64591 -22.048645,-14.99281 -23.746536,-27.4555 -1.69789,-12.46269 5.22587,-24.579272 14.927169,-32.516615 9.701299,-7.937343 22.048834,-11.46521 32.262684,-11.612894 10.21386,-0.147684 19.77208,3.675605 25.06365,10.730943 5.29157,7.055339 7.05548,17.638837 4.4097,28.222236 -2.64579,10.58339 -9.7012,21.16651 -14.04792,26.45833 -4.34672,5.29182 -6.23655,5.29182 -8.0007,5.29182"
       id="path831-5"
       inkscape:connector-curvature="0"
       inkscape:path-effect="#path-effect833-7"
       inkscape:original-d="m 121.70833,127.66667 c -12.72493,6.92929 -24.694177,14.11084 -37.041664,21.16666 -10.583339,-12.3478 -21.166402,-24.69471 -31.75,-37.04166 C 59.846482,99.066224 67.028041,87.096956 74.083332,74.75 86.430505,71.222046 98.77804,67.694179 111.125,64.166667 c 8.06355,3.275444 17.63915,7.055289 26.45833,10.583333 1.76413,10.582902 3.52804,21.166402 5.29167,31.75 -7.05544,10.58328 -14.11085,21.1664 -21.16667,31.75 -1.63768,0.8817 -3.52751,-2.7e-4 -5.29166,0"
       inkscape:export-xdpi="13.686318"
       inkscape:export-ydpi="13.686318" />
    <path
       transform="matrix(0.56022191,0,0,0.56053547,42.941327,156.64664)"
       style="fill:none;fill-opacity:1;stroke:#ff3830;stroke-width:8.59061966;stroke-linecap:butt;stroke-linejoin:miter;stroke-miterlimit:4;stroke-dasharray:none;stroke-opacity:1"
       d="m 121.70833,127.66667 c -14.02417,5.32169 -27.533941,10.44818 -37.767296,8.87483 -10.233355,-1.57336 -16.806318,-9.78792 -17.812315,-21.26432 -1.005997,-11.4764 3.628567,-25.372308 11.500293,-34.025956 7.871727,-8.653647 18.891226,-11.800314 29.373768,-11.729985 10.48254,0.07033 20.42722,3.357419 26.31631,10.056565 5.88909,6.699147 7.72248,16.810583 5.1115,25.394086 -2.61098,8.5835 -9.66639,15.63891 -13.19432,19.16685 -3.52794,3.52793 -3.52794,3.52793 -3.52794,3.52793"
       id="path831-5-5"
       inkscape:connector-curvature="0"
       inkscape:path-effect="#path-effect833-7-3"
       inkscape:original-d="m 121.70833,127.66667 c -14.02427,5.32144 -27.534038,10.44793 -41.302265,15.67279 -6.697868,-8.37173 -13.27083,-16.5863 -20.094536,-25.11317 4.811478,-14.42541 9.44604,-28.321324 14.168492,-42.481698 11.020629,-3.147327 22.040128,-6.293994 33.059819,-9.440378 9.94567,3.286789 19.89035,6.573877 29.835,9.861585 1.83388,10.111054 3.66728,20.222489 5.50016,30.334201 -7.05539,7.05539 -14.1108,14.1108 -21.16667,21.16667 4.7e-4,-4.7e-4 0,0 0,0"
       sodipodi:nodetypes="ccccccccc"
       inkscape:export-xdpi="13.686318"
       inkscape:export-ydpi="13.686318" />
    <path
       style="fill:none;stroke:#ff3830;stroke-width:4.53647808;stroke-linecap:butt;stroke-linejoin:miter;stroke-miterlimit:4;stroke-dasharray:none;stroke-opacity:1"
       d="m 251.35416,127.66667 c -6.1733,4.4095 -12.34692,8.81922 -20.34454,10.57777 -7.99762,1.75854 -17.57883,0.88753 -23.71957,-3.8532 -6.14073,-4.74072 -8.85261,-13.78029 -8.88159,-22.93428 -0.029,-9.15398 2.67495,-19.068388 8.84852,-26.123786 6.17357,-7.055398 15.87528,-11.465265 23.74172,-12.808366 7.86644,-1.3431 14.18203,0.461355 19.91449,4.870932 5.73246,4.409577 11.02428,11.465325 10.58344,18.961729 -0.44084,7.496401 -6.61446,15.433901 -12.34706,21.166591 -5.7326,5.73268 -11.02427,9.26046 -17.63919,9.70147 -6.61491,0.44102 -14.55189,-2.20464 -18.52072,-6.61459 -3.96883,-4.40994 -3.96883,-10.58343 -2.64588,-15.87502 1.32296,-5.291597 3.9689,-9.701509 8.81939,-11.906215 4.85048,-2.204705 11.90654,-2.204705 16.3161,-1.322793 4.40955,0.881913 6.1735,2.645866 7.05545,5.732537 0.88194,3.086671 0.88194,7.496401 -0.88192,11.465251 -1.76386,3.96886 -5.29143,7.49642 -9.3045,8.51076 -4.01307,1.01434 -10.09815,-1.01402 -11.86201,-3.66009 -1.76386,-2.64607 -2e-5,-6.17374 1.76371,-9.7012"
       id="path909"
       inkscape:connector-curvature="0"
       inkscape:path-effect="#path-effect911"
       inkscape:original-d="m 251.35416,127.66667 c -6.17334,4.40945 -12.34695,8.81918 -18.52083,13.22916 -9.81395,-0.97404 -19.40251,-1.76415 -29.10417,-2.64583 -2.42848,-8.64489 -5.2914,-17.63915 -7.9375,-26.45833 3.06823,-9.35767 5.29194,-19.403047 7.9375,-29.10417 9.70134,-4.409844 19.40305,-8.81971 29.10417,-13.229166 6.1334,1.367803 12.34749,3.527512 18.52083,5.291666 5.29179,7.055093 10.5836,14.110844 15.87501,21.166667 -6.17335,7.937233 -12.34696,15.874733 -18.52084,23.812503 -5.2914,3.52751 -10.58307,7.05529 -15.875,10.58333 -7.93776,-2.64627 -15.87473,-5.29193 -23.8125,-7.9375 2.7e-4,-6.174 2.7e-4,-12.34749 0,-18.52083 2.64598,-4.409803 5.29193,-8.819714 7.9375,-13.22917 7.05532,-2.64e-4 14.11138,-2.64e-4 21.16667,0 1.76409,1.763557 3.52804,3.527512 5.29166,5.291667 2.7e-4,4.409453 2.7e-4,8.819183 0,13.229163 -3.52772,3.52773 -7.05529,7.05529 -10.58333,10.58334 -4.40979,-1.76429 -10.58307,-3.52805 -15.875,-5.29167 1.76421,-3.52815 3.52804,-7.05582 5.29167,-10.58333"
       sodipodi:nodetypes="ccccccccccccccccccc"
       transform="matrix(0.89033826,0,0,0.89033826,24.918108,14.000146)"
       inkscape:export-xdpi="11.944714"
       inkscape:export-ydpi="11.944714" />
    <path
       style="fill:none;stroke:#ff3830;stroke-width:4.53647808;stroke-linecap:butt;stroke-linejoin:miter;stroke-miterlimit:4;stroke-dasharray:none;stroke-opacity:1"
       d="m 192.45221,72.125439 c 2.20495,-3.968729 5.41817,-7.286807 8.13162,-9.431713 2.71344,-2.144906 4.86354,-3.088889 7.58518,-2.63517 2.72163,0.453718 5.71135,2.25434 7.55715,4.350641 1.8458,2.0963 2.42952,4.32116 1.50472,6.171144 -0.92481,1.849985 -3.18562,2.980376 -5.25713,2.692806 -2.0715,-0.28757 -3.83486,-2.050927 -3.3938,-5.137888 0.44107,-3.086961 3.00556,-7.36111 7.09639,-10.542713 4.09083,-3.181603 9.21981,-4.891264 13.409,-5.552653 4.18919,-0.661389 7.27599,-0.220417 9.43256,1.431049 2.15658,1.651465 3.57579,4.962959 3.80336,7.808172 0.22757,2.845213 -0.66838,5.533068 -2.8732,6.415195 -2.20482,0.882127 -5.7326,1.82e-4 -7.05553,-1.322918 -1.32293,-1.323099 -0.48397,-3.001018 1.82841,-5.775778 2.31237,-2.774759 5.66821,-6.130598 10.07794,-7.894356 4.40972,-1.763757 9.62432,-1.763757 14.09813,0.02582 4.47382,1.789579 7.82559,5.141352 9.19527,9.250152 1.36968,4.108799 0.52306,8.341939 -1.24904,11.443359 -1.77209,3.101421 -4.40544,4.856986 -6.61049,5.298039 -2.20506,0.441054 -3.96876,-0.440798 -4.85075,-2.204845 -0.882,-1.764047 -0.882,-4.40988 1.10251,-5.732665 1.98451,-1.322785 5.95325,-1.322784 9.92162,-3.2e-5 3.96838,1.322752 7.93768,3.968952 10.80394,7.937607 2.86627,3.968655 4.60044,9.171166 5.0489,14.103507 0.44846,4.93234 -0.41863,9.26778 -2.78774,12.75819 -2.3691,3.49041 -6.4501,6.21107 -9.99081,5.75559 -3.54071,-0.45548 -6.60197,-3.95406 -6.66479,-6.59996 -0.0628,-2.6459 3.01244,-4.47794 4.91996,-4.901772 1.90752,-0.423828 2.95441,0.492182 4.1008,3.931162 1.14639,3.43899 2.50732,9.78994 2.28691,15.52253 -0.22041,5.73258 -1.9708,10.98374 -3.74817,15.42721 -1.77736,4.44348 -3.52775,7.94425 -8.15789,10.36973 -4.63013,2.42548 -12.12666,3.7484 -16.09325,2.44636 -3.96658,-1.30204 -4.40334,-5.23287 -2.82872,-7.482 1.57462,-2.24912 5.03142,-2.68122 7.87304,-1.60823 2.84162,1.07299 5.09555,3.77771 3.74282,7.10942 -1.35274,3.33171 -6.14349,7.25142 -12.48605,9.67114 -6.34256,2.41972 -14.23374,3.29652 -21.87144,2.17339 -7.63769,-1.12314 -14.56046,-4.15185 -16.75994,-8.5734 -2.19948,-4.42154 0.43562,-10.13091 3.52233,-10.79223 3.08672,-0.66131 6.6145,3.74842 6.83514,7.27609 0.22064,3.52767 -2.86617,6.1735 -7.12974,6.65961 -4.26357,0.48611 -10.14329,-1.32304 -14.43884,-5.84466 -4.29556,-4.52161 -6.7724,-11.12654 -7.00127,-16.85108 -0.22886,-5.72455 1.81367,-9.4011 4.78061,-10.77027 2.96694,-1.36918 6.37086,-0.0927 6.81189,1.8915 0.44103,1.98421 -2.2048,4.63005 -5.95316,4.63021 -3.74835,1.5e-4 -8.51278,-2.59863 -10.53247,-7.53575 -2.01969,-4.93713 -1.15982,-11.81607 -0.0272,-17.39675 1.13267,-5.580675 2.48977,-9.576947 6.01763,-11.781655 3.52786,-2.204707 9.21642,-2.588985 11.6196,-0.576406 2.40319,2.01258 1.54645,6.296293 -0.7214,7.657192 -2.26784,1.360899 -5.69482,-0.352591 -7.45875,-2.557606 -1.76394,-2.205015 -1.76394,-4.850855 -1.16565,-8.483506 0.5983,-3.632651 1.7948,-8.25208 3.99975,-12.22081 z"
       id="path1195"
       inkscape:connector-curvature="0"
       inkscape:path-effect="#path-effect1197"
       inkscape:original-d="m 191.44369,71.475054 c 3.21348,-3.318339 6.4267,-6.636414 9.63964,-9.954221 2.21389,-0.972135 4.36399,-1.91612 6.64087,-2.915616 3.16663,1.906747 6.15635,3.707368 9.23413,5.56145 0.61394,2.338748 1.19767,4.563606 1.84102,7.017035 -2.49333,1.246518 -4.75414,2.376908 -7.13268,3.566298 -1.76416,-1.764687 -3.52752,-3.528042 -5.29167,-5.291667 2.6461,-4.409988 5.21059,-8.684137 7.9375,-13.229166 5.45462,-1.818382 10.5836,-3.528043 15.875,-5.291667 3.08707,0.440708 6.17387,0.88168 9.26041,1.322917 1.21141,2.868486 2.6461,6.173346 3.96875,9.260417 -0.86767,2.603546 -1.76362,5.291401 -2.64583,7.937499 -3.52751,-0.882209 -7.05529,-1.764153 -10.58333,-2.645833 0.88221,-1.764155 1.72117,-3.442073 2.64583,-5.291667 3.69998,-3.699981 7.05582,-7.055821 10.58334,-10.583333 5.29193,-2.65e-4 10.50653,-2.65e-4 15.875,0 3.57942,3.578892 6.93119,6.930668 10.58333,10.583333 -0.91284,4.565236 -1.75946,8.798377 -2.64583,13.229167 -2.65806,1.771946 -5.29141,3.527514 -7.93751,5.291667 -1.76381,-0.882301 -3.52751,-1.764154 -5.29166,-2.645834 2.6e-4,-2.646097 2.6e-4,-5.29193 0,-7.9375 3.96902,-2.64e-4 7.93776,-2.64e-4 11.90625,10e-7 3.96846,2.645199 7.93776,5.291399 11.90625,7.937499 1.76416,5.291408 3.49833,10.49392 5.29167,15.875 -0.89654,4.483748 -1.76363,8.819187 -2.64584,13.229167 -3.86175,2.56248 -7.93724,5.2914 -11.90625,7.9375 -3.11209,-3.55725 -6.17335,-7.05582 -9.26041,-10.58333 2.96108,-1.76413 6.03635,-3.59617 8.88246,-5.291595 0.96923,0.847565 2.01612,1.763575 3.02378,2.645755 1.28518,5.996 2.6461,12.34696 3.96876,18.52084 -1.76363,5.2914 -3.51402,10.54256 -5.29167,15.875 -1.77712,3.55451 -3.52751,7.05529 -5.29167,10.58333 -7.49626,1.32265 -14.99279,2.64557 -22.48958,3.96875 -0.43605,-3.92708 -0.87281,-7.85791 -1.32292,-11.90625 3.59903,-0.45011 7.05583,-0.88221 10.58333,-1.32292 2.276,2.48672 4.40999,5.2914 6.61459,7.9375 -4.82852,4.11759 -9.70113,7.93724 -14.55209,11.90625 -7.83417,0.87023 -15.72535,1.74703 -23.81249,2.64584 -7.18808,-3.14517 -14.11085,-6.17388 -21.16667,-9.26042 2.65684,-5.75618 5.29193,-11.46555 7.9375,-17.19792 3.52804,4.40946 7.05582,8.81919 10.58333,13.22917 -3.08654,2.64557 -6.17335,5.2914 -9.26042,7.9375 -5.43995,-1.67418 -11.31967,-3.48332 -17.19791,-5.29167 -2.71265,-7.23469 -5.18949,-13.83962 -7.9375,-21.16666 2.29005,-4.12188 4.33257,-7.79843 6.61458,-11.90625 3.65191,1.3691 7.05583,2.64557 10.58334,3.96875 -2.64557,2.64556 -5.2914,5.2914 -7.9375,7.9375 -4.85044,-2.6461 -9.61487,-5.24488 -14.55209,-7.9375 0.8979,-7.18129 1.75776,-14.06023 2.64584,-21.16667 1.37718,-4.054893 2.73429,-8.051163 4.10103,-12.076337 5.6888,-0.384541 11.37736,-0.768818 17.06563,-1.15283 -0.88168,4.409456 -1.73842,8.69317 -2.64583,13.229167 -3.62832,-1.814557 -7.0553,-3.528046 -10.58333,-5.291667 2.6e-4,-2.646093 2.6e-4,-5.291933 0,-7.9375 1.19677,-4.619687 2.39328,-9.239116 3.58952,-13.858279 z"
       sodipodi:nodetypes="ccccccccccccccccccccccccccccccccccccccccccccccccccccccc"
       transform="matrix(0.89033826,0,0,0.89033826,24.918108,14.000146)"
       inkscape:export-xdpi="11.944714"
       inkscape:export-ydpi="11.944714" />
    <path
       style="fill:none;stroke:#ff3830;stroke-width:6.08519922;stroke-linecap:butt;stroke-linejoin:miter;stroke-miterlimit:4;stroke-dasharray:none;stroke-opacity:1"
       d="m 220.86568,191.75224 c -10.58339,14.11106 -25.7663,38.51289 -40.94902,62.91442 21.16667,0 42.3336,0 60.68523,-0.91393 18.35164,-0.91393 32.80088,-2.61384 47.79394,-4.37773 -7.05555,-14.99306 -14.11116,-29.98623 -21.60768,-43.21537 C 259.29163,192.9305 251.35416,181.46528 243.41666,170 c -5.98395,3.82069 -11.96759,7.64119 -22.55098,21.75224 z"
       id="path1218"
       inkscape:connector-curvature="0"
       inkscape:path-effect="#path-effect1220"
       inkscape:original-d="m 225.46482,181.46208 c -15.18246,24.40126 -45.54816,73.20458 -45.54816,73.20458 0,0 42.3336,-2.6e-4 63.5,0 15.53684,-1.82809 44.97917,-5.29166 44.97917,-5.29166 0,0 -14.11084,-29.98638 -21.16666,-44.97917 C 259.29193,192.93029 243.41666,170 243.41666,170 c 0,0 -11.96763,7.64112 -17.95184,11.46208 z"
       sodipodi:nodetypes="ccccccc"
       transform="matrix(0.83333344,0,0,0.83333344,32.903576,36.66478)"
       inkscape:export-xdpi="12.345487"
       inkscape:export-ydpi="12.345487" />
    <path
       style="opacity:1;fill:#f11a26;fill-opacity:1;fill-rule:evenodd;stroke:#ff3830;stroke-width:2.2272675;stroke-linecap:round;stroke-miterlimit:4;stroke-dasharray:none;stroke-dashoffset:0;stroke-opacity:1;paint-order:markers fill stroke"
       id="path1232"
       d="m 342.07864,67.343723 c -1.23153,0.845769 -2.14717,2.052538 -3.05964,3.215453 -1.75831,2.384881 -3.32049,4.904418 -4.8577,7.434757 -2.91032,5.114662 -6.04318,10.094669 -9.05734,15.147534 -3.52233,5.912529 -6.58067,12.081163 -9.71247,18.204353 -2.53154,5.00853 -4.58796,10.2308 -6.66377,15.438 -0.73883,1.80508 -1.35876,3.65575 -2.06845,5.47154 -0.0922,0.2608 -0.18856,0.39512 0.003,0.58553 0,0 -4.13232,2.49375 -4.13232,2.49375 v 0 c -0.28028,-0.34775 -0.38842,-0.63943 -0.20645,-1.07891 0.79843,-1.8492 1.52099,-3.73076 2.31156,-5.5841 2.22502,-5.22186 4.31503,-10.50655 6.88062,-15.57633 3.13295,-6.11669 6.15634,-12.29794 9.66491,-18.212615 2.96867,-5.01495 6.0695,-9.949778 8.86837,-15.063909 1.4681,-2.522107 2.96859,-5.026189 4.65901,-7.407875 0.88357,-1.170386 1.77066,-2.360064 2.89302,-3.314902 0,0 4.4784,-1.752276 4.4784,-1.752276 z"
       inkscape:connector-curvature="0"
       inkscape:export-xdpi="9.430829"
       inkscape:export-ydpi="9.430829" />
    <path
       style="opacity:1;fill:#f11a26;fill-opacity:1;fill-rule:evenodd;stroke:#ff3830;stroke-width:2.2272675;stroke-linecap:round;stroke-miterlimit:4;stroke-dasharray:none;stroke-dashoffset:0;stroke-opacity:1;paint-order:markers fill stroke"
       id="path1234"
       d="m 347.62898,88.45103 c -1.04191,0.363044 -2.01635,0.895481 -2.96173,1.458671 1.17866,-0.67917 2.35649,-1.359737 3.53594,-2.037512 0.18304,-0.105179 -0.36382,0.214229 -0.54667,0.319733 -1.54188,0.889673 -3.08656,1.774524 -4.62752,2.665791 -1.16926,0.676283 2.34009,-1.349819 3.51239,-2.020818 0.18503,-0.105906 -0.36958,0.21279 -0.55053,0.325516 -0.17961,0.111877 -0.3539,0.23208 -0.53085,0.348121 -0.98626,0.635946 -1.69008,1.535496 -2.33505,2.493863 -0.69904,1.009466 -1.28523,2.085339 -1.8296,3.183913 -0.76365,1.663795 -1.49084,3.343188 -2.27091,4.999382 -0.73551,1.48644 -1.40284,3.0029 -2.07647,4.51767 -0.39571,0.92028 -0.83747,1.81709 -1.06494,2.79648 -0.18795,1.08087 -0.17529,2.18477 -0.18326,3.2783 0.003,1.179 0.008,2.35798 0.0162,3.53694 -0.0422,0.8825 -0.20011,1.74467 -0.16858,2.62948 0.10207,0.8862 0.43189,1.72609 0.79462,2.53452 0.3415,0.6308 0.90824,1.07456 1.49713,1.46254 0.59783,0.35453 1.21906,0.58766 1.90562,0.68558 0.90382,0.11349 1.80032,0.0834 2.70033,-0.0289 0.86416,-0.1575 1.75197,-0.27706 2.59823,-0.51842 0.37927,-0.0541 0.68109,-0.22677 0.99552,-0.42653 0.0913,-0.058 0.37232,-0.22074 0.27845,-0.16692 -3.85577,2.21112 -5.05115,3.03201 -3.54239,2.00883 0.62089,-0.42115 1.09414,-1.00143 1.60039,-1.54483 0.52156,-0.54244 0.98573,-1.11352 1.3611,-1.76653 0.5088,-1.03663 1.03926,-2.06327 1.50915,-3.11824 0.55118,-1.32572 1.06553,-2.66617 1.56779,-4.01099 0.40038,-1.06717 0.76781,-2.13906 0.96545,-3.2632 0.0956,-1.00165 0.16413,-1.99035 0.3751,-2.97622 0.27478,-0.95801 0.51438,-1.92048 0.64083,-2.9097 0.0835,-0.75537 0.0926,-1.51581 0.0963,-2.2749 0.004,-0.644851 0.0216,-1.286004 -0.0784,-1.924348 -0.11985,-0.641178 -0.16656,-1.290513 -0.29936,-1.92913 -0.20058,-0.623155 -0.36731,-1.262441 -0.65708,-1.851562 -0.23333,-0.513299 -0.5286,-0.991185 -0.7116,-1.526029 -0.11433,-0.531169 -0.33392,-1.030034 -0.57235,-1.515502 -0.22805,-0.550648 -0.58491,-1.0187 -0.95426,-1.478176 -0.34896,-0.370096 -0.79941,-0.586758 -1.24146,-0.819566 -0.50755,-0.214238 -0.9866,-0.51515 -1.39308,-0.887678 -0.36678,-0.370935 -0.71188,-0.756542 -1.20633,-0.947642 -0.0749,0.0026 -0.15821,-0.02707 -0.22448,0.0077 -0.0861,0.04523 -0.28384,0.259853 -0.19798,0.214229 1.27543,-0.677629 2.49856,-1.451544 3.78016,-2.117438 0.1785,-0.09274 -0.30894,0.257866 -0.45901,0.391828 -0.1763,0.157366 -0.34661,0.321317 -0.51992,0.481981 -0.18926,0.16755 -0.37851,0.3351 -0.56779,0.50266 -0.1859,0.150906 -0.37182,0.301811 -0.55772,0.452718 0,0 -4.39522,1.758453 -4.39522,1.758453 v 0 c 0.19079,-0.144001 0.38157,-0.287994 0.57236,-0.431996 1.81317,-1.552114 4.12632,-4.629923 6.5843,-3.911698 0.49107,0.27338 0.87544,0.667658 1.27903,1.054268 0.4035,0.326227 0.85067,0.58764 1.32684,0.794304 0.50046,0.25342 0.97141,0.56791 1.34587,0.990971 0.38999,0.48605 0.75515,0.990543 1.00272,1.567311 0.25688,0.500827 0.5036,1.0196 0.61402,1.574644 0.16042,0.519296 0.45945,0.973564 0.67151,1.472181 0.30424,0.626419 0.48687,1.297837 0.71172,1.955301 0.14114,0.645376 0.20426,1.295533 0.30977,1.947437 0.11859,0.66418 0.1378,1.323725 0.11402,1.998621 -0.004,0.77831 -0.014,1.557658 -0.0906,2.332878 -0.11162,1.00461 -0.31055,1.99312 -0.63124,2.9539 -0.20978,0.98048 -0.34304,1.95028 -0.38108,2.95453 -0.18174,1.16209 -0.52737,2.26785 -0.95393,3.36337 -0.52347,1.33921 -1.01533,2.69078 -1.55328,4.02466 -0.43794,1.06729 -0.97851,2.08793 -1.46643,3.13302 -0.31696,0.70895 -0.74145,1.32878 -1.29457,1.87026 -0.48398,0.57663 -0.99333,1.1431 -1.56242,1.63756 -1.75144,1.41651 -3.79944,2.67605 -5.99584,3.26166 -0.86989,0.17814 -1.74155,0.36586 -2.62519,0.45928 -0.93203,0.0839 -1.87004,0.0731 -2.79659,-0.0719 -0.72371,-0.16048 -1.39559,-0.44834 -2.01832,-0.85418 -0.64282,-0.46406 -1.26005,-0.96714 -1.62203,-1.69148 -0.38595,-0.86089 -0.72243,-1.75701 -0.87696,-2.69078 -0.0614,-0.89899 0.0433,-1.76735 0.1718,-2.65791 0.004,-1.18295 -0.002,-2.3659 8.6e-4,-3.54884 -4.6e-4,-1.11577 -0.0313,-2.23784 0.10534,-3.34751 0.19404,-1.03247 0.61697,-1.9628 1.06328,-2.91006 0.69505,-1.5201 1.36319,-3.05108 2.1162,-4.54431 0.77549,-1.64729 1.51469,-3.309583 2.2297,-4.984154 0.51735,-1.116957 1.08176,-2.211711 1.77177,-3.233067 0.65709,-0.982148 1.29036,-1.978961 2.28417,-2.664711 0.64079,-0.470494 0.38272,-0.307483 1.06855,-0.705616 15.38682,-8.932173 -2.54636,1.47213 1.65782,-0.964089 1.53085,-0.887096 3.06198,-1.773754 4.59297,-2.660625 0.98162,-0.547505 1.98753,-1.045009 3.03826,-1.447587 0,0 -3.77086,2.980161 -3.77086,2.980161 z"
       inkscape:connector-curvature="0"
       inkscape:export-xdpi="9.430829"
       inkscape:export-ydpi="9.430829" />
    <path
       style="opacity:1;fill:#f11a26;fill-opacity:1;fill-rule:evenodd;stroke:#ff3830;stroke-width:2.2272675;stroke-linecap:round;stroke-miterlimit:4;stroke-dasharray:none;stroke-dashoffset:0;stroke-opacity:1;paint-order:markers fill stroke"
       id="path1238"
       d="m 297.54534,147.40615 c 1.36374,-0.40046 2.68578,-0.9249 4.01945,-1.41291 1.8199,-0.68773 3.7201,-1.14514 5.59287,-1.66707 1.8698,-0.55677 3.7328,-1.12341 5.61604,-1.63254 1.24118,-0.25659 2.47109,-0.53168 3.68316,-0.9023 1.14934,-0.30905 2.3091,-0.5784 3.45021,-0.91854 1.45501,-0.33237 2.86225,-0.83435 4.30444,-1.21372 1.65382,-0.31362 3.32967,-0.47937 4.98502,-0.78747 2.08159,-0.52912 4.1946,-0.88756 6.32062,-1.18124 2.25286,-0.30533 4.52833,-0.30668 6.79276,-0.4499 2.00253,-0.13247 3.99481,-0.38762 5.9892,-0.60674 2.51116,-0.16996 5.02016,-0.3288 7.52841,-0.54474 3.88325,-0.39076 7.74849,-0.93314 11.62095,-1.41629 7.16115,-0.91324 14.38425,-0.85776 21.5846,-0.6515 5.12255,0.2721 10.24062,0.61819 15.36186,0.9133 0,0 -3.50134,2.50857 -3.50134,2.50857 v 0 c -5.06466,-0.38191 -10.12952,-0.77574 -15.20397,-1.0058 -7.27145,-0.1653 -14.56223,-0.13162 -21.78146,0.87814 -3.92507,0.52938 -7.84299,1.12402 -11.78503,1.51514 -2.52569,0.22853 -5.05543,0.37466 -7.58101,0.59777 -1.99593,0.23059 -3.99375,0.46535 -6.00007,0.58267 -2.25325,0.11513 -4.51531,0.14276 -6.75244,0.46957 -2.13267,0.31722 -4.24506,0.72042 -6.34288,1.2191 -1.66172,0.29059 -3.3462,0.45603 -4.98971,0.8426 -1.43406,0.40306 -2.85327,0.85847 -4.29921,1.21935 -1.15792,0.32531 -2.32397,0.62078 -3.48186,0.94641 -1.20154,0.34313 -2.43193,0.55437 -3.64371,0.8562 -1.87286,0.49497 -3.71731,1.08091 -5.58021,1.61147 -1.87852,0.52474 -3.77604,1.00771 -5.59565,1.71732 -1.35845,0.50423 -2.7234,0.99086 -4.08189,1.49332 0,0 3.77085,-2.98017 3.77085,-2.98017 z"
       inkscape:connector-curvature="0"
       inkscape:export-xdpi="9.430829"
       inkscape:export-ydpi="9.430829" />
    <path
       style="opacity:1;fill:#f11a26;fill-opacity:1;fill-rule:evenodd;stroke:#ff3830;stroke-width:2.2272675;stroke-linecap:round;stroke-miterlimit:4;stroke-dasharray:none;stroke-dashoffset:0;stroke-opacity:1;paint-order:markers fill stroke"
       id="path1240"
       d="m 294.97462,163.33393 c 0.83555,-0.32051 1.62889,-0.72881 2.40273,-1.17702 -8.4357,4.84079 -1.04993,0.59377 0.81499,-0.43578 0.15678,-0.0866 0.33233,-0.13382 0.49581,-0.20693 0.67274,-0.30092 1.34095,-0.61489 2.0118,-0.92031 2.29607,-0.95412 4.58111,-1.93522 6.86308,-2.92262 3.43283,-1.5608 7.0368,-2.68869 10.62118,-3.84018 5.22147,-1.71613 10.55292,-3.04177 15.87117,-4.41402 4.28829,-1.13048 8.57478,-2.28209 12.92272,-3.165 2.98687,-0.60655 3.26852,-0.61673 6.24493,-1.0823 5.58052,-0.90644 11.20715,-1.4499 16.82748,-2.03074 5.80539,-0.6 11.64262,-0.74624 17.47384,-0.84455 6.11014,0.043 12.21106,-0.22337 18.30885,-0.57776 4.04812,-0.18213 8.07524,-0.65184 12.11149,-0.99361 1.19295,-0.0973 2.38761,-0.16943 3.58333,-0.22109 0,0 -3.83171,2.80484 -3.83171,2.80484 v 0 c -1.15693,0.0322 -2.3134,0.0803 -3.46814,0.16049 -3.97657,0.27703 -7.9439,0.6923 -11.92832,0.84592 -6.08783,0.30775 -12.17787,0.54505 -18.27485,0.53343 -5.84222,0.11527 -11.68915,0.28698 -17.50342,0.91159 -5.59815,0.56607 -11.19892,1.1247 -16.75857,2.00852 -2.94872,0.46364 -3.24049,0.47569 -6.20124,1.08063 -4.352,0.88916 -8.63933,2.05624 -12.93116,3.19328 -5.35696,1.39874 -10.71869,2.78275 -15.97645,4.52836 -3.61504,1.18496 -7.23973,2.36621 -10.70169,3.95775 -2.3121,1.00082 -4.62618,1.99708 -6.93927,2.99553 -0.68681,0.31638 -1.37381,0.63237 -2.06011,0.94984 -0.1637,0.0758 -0.64522,0.32101 -0.49083,0.22776 0.65099,-0.39313 10.35246,-6.03929 -0.80512,0.45895 -0.80435,0.42686 -1.61821,0.84166 -2.49257,1.10856 0,0 3.81005,-2.93354 3.81005,-2.93354 z"
       inkscape:connector-curvature="0"
       inkscape:export-xdpi="9.430829"
       inkscape:export-ydpi="9.430829" />
    <path
       style="opacity:1;fill:#f11a26;fill-opacity:1;fill-rule:evenodd;stroke:#ff3830;stroke-width:2.2272675;stroke-linecap:round;stroke-miterlimit:4;stroke-dasharray:none;stroke-dashoffset:0;stroke-opacity:1;paint-order:markers fill stroke"
       id="path1260"
       d="m 376.93149,116.59283 c -0.49432,1.18851 -1.04331,2.3539 -1.64289,3.49276 -1.68861,2.38271 -5.42495,4.38589 -7.75333,4.91779 -0.88983,0.18258 -1.75213,0.12018 -2.633,-0.0467 -0.8462,-0.23698 -1.44435,-0.74594 -1.97601,-1.42228 -0.53669,-0.64472 -0.7693,-1.45511 -1.08014,-2.2185 -0.29469,-0.93605 -0.64383,-1.85336 -0.94562,-2.78684 -0.38732,-0.80325 -0.65065,-1.63663 -0.79368,-2.51498 -0.11611,-0.89927 -0.11658,-1.80785 -0.12114,-2.71297 -0.0311,-0.93964 0.19341,-1.85952 0.31856,-2.78552 0.029,-0.8473 0.21546,-1.66472 0.38844,-2.48978 0.0755,-0.7825 0.27714,-1.53601 0.45211,-2.2992 0.10714,-0.75652 0.37506,-1.47191 0.52093,-2.22006 0.13676,-0.8499 0.14682,-1.71295 0.15871,-2.57165 -0.0585,-0.942266 0.11249,-1.863542 0.25616,-2.789057 0.0645,-0.862081 0.23578,-1.697965 0.47402,-2.526988 0.28846,-0.891661 0.68713,-1.742469 1.10559,-2.579237 0.38592,-0.66997 0.70394,-1.375174 1.15956,-2.002501 0.45732,-0.561306 0.88476,-1.146486 1.32693,-1.720513 0.44722,-0.539983 0.8357,-1.118217 1.2183,-1.705221 0.42191,-0.543462 0.69264,-1.140028 1.28322,-1.524154 2.16941,-1.524795 0.97817,-0.701109 6.43989,-3.675993 0.11094,-0.06039 0.25185,-0.03555 0.37095,-0.07761 0.33978,-0.120144 0.63173,-0.289562 0.9876,-0.386842 0.82674,-0.175064 1.67579,-0.185856 2.51726,-0.200591 1.03128,0.0454 1.71909,0.543299 2.47094,1.180794 0.61199,0.56929 1.09507,1.227644 1.54544,1.927323 0.43615,0.847749 0.86789,1.698343 1.31825,2.54001 0.48977,0.985995 1.33207,1.697949 1.99313,2.55429 0.52167,0.798664 0.77885,1.724145 1.08129,2.618496 0.34356,0.901641 0.5001,1.848529 0.58941,2.804224 0.15775,0.914285 0.3316,1.822581 0.42664,2.746366 0.081,0.922569 0.0878,1.849283 0.0937,2.774684 0.003,0.91638 4.5e-4,1.8328 -6.9e-4,2.74919 -8.6e-4,0.91572 -0.002,1.83142 -0.002,2.74714 0.0193,0.92046 -0.12932,1.84074 -0.40871,2.71619 -0.23393,0.71578 -0.72333,1.2851 -1.16768,1.87635 -0.38447,0.72812 -0.84673,1.40915 -1.25681,2.12262 -0.38271,0.61014 -0.73791,1.24172 -1.03901,1.89644 -0.3089,0.75636 -0.70052,1.44916 -1.25614,2.04839 -0.53857,0.49477 -1.12484,0.93417 -1.65438,1.43825 -2.35587,1.77444 -4.92754,3.37044 -7.67996,4.43755 -0.65381,0.52568 -1.45266,0.67078 -2.26228,0.7628 -0.76599,0.0356 -1.47127,0.34021 -2.16201,0.63934 -0.35852,0.13677 -0.7371,0.18799 -1.11411,0.24207 0,0 5.42256,-4.10658 5.42256,-4.10658 v 0 c 0.35451,-0.0932 0.70632,-0.1925 1.03955,-0.34908 0.71869,-0.27979 1.48374,-0.41221 2.24606,-0.51183 0.77984,-0.17572 1.46073,-0.52039 2.16019,-0.89838 3.77588,-1.88053 -8.01498,4.72474 -3.9636,2.33693 0.58765,-0.43628 1.08312,-0.99041 1.66603,-1.43628 0.65173,-0.43374 1.09978,-1.0534 1.36552,-1.78883 0.33242,-0.66568 0.62055,-1.34031 1.00106,-1.98066 0.44157,-0.58363 0.0227,0.0102 0.41245,-0.6834 0.27433,-0.48826 0.70612,-0.87405 0.84442,-1.44013 0.36105,-0.6206 0.86466,-1.11402 1.24087,-1.72125 0.29946,-0.80766 0.53968,-1.6455 0.51583,-2.51793 1.2e-4,-0.91591 2.3e-4,-1.83184 8.6e-4,-2.74775 8.6e-4,-0.91522 0.004,-1.83044 0.003,-2.74566 -0.003,-0.90727 -0.004,-1.81552 -0.0657,-2.72111 -0.0787,-0.9281 -0.22942,-1.843507 -0.43027,-2.753174 -0.0643,-0.903071 -0.18072,-1.802511 -0.50698,-2.654106 -0.29265,-0.820559 -0.5018,-1.6845 -0.96949,-2.430351 -0.68155,-0.88408 -1.52826,-1.642456 -2.04305,-2.65188 -0.44865,-0.821373 -0.88477,-1.64804 -1.30278,-2.48378 -0.42265,-0.636921 -0.87478,-1.240802 -1.44676,-1.755035 -0.65063,-0.543992 -1.31506,-0.830043 -2.18791,-0.772502 -0.81327,0.03692 -1.63783,0.08241 -2.40942,0.367088 -0.33065,0.132 -0.66217,0.251793 -0.99457,0.376983 -0.11059,0.04163 -0.42707,0.201079 -0.32518,0.141217 5.08005,-2.984341 7.46654,-4.156355 5.2339,-3.052419 -0.6702,0.509222 -0.70936,0.230599 -1.16796,1.064266 -0.0545,0.09919 -0.12593,0.188153 -0.18889,0.282229 -0.4983,0.501075 -0.71145,1.197061 -1.24103,1.671803 -0.39179,0.59959 -0.81647,1.20652 -1.32487,1.711253 -0.42347,0.641735 -0.9066,1.234026 -1.19925,1.959627 -0.50114,0.74969 -0.82694,1.61817 -1.15441,2.454354 -0.30841,0.771928 -0.47893,1.592376 -0.53514,2.420346 -0.1265,0.901358 -0.36288,1.788521 -0.29602,2.70535 -0.006,0.887275 -0.009,1.776845 -0.10412,2.660071 -0.10422,0.77109 -0.35257,1.48934 -0.50822,2.24205 -0.137,0.77325 -0.42891,1.50164 -0.4571,2.29221 -0.14025,0.82354 -0.42737,1.61112 -0.41756,2.45583 -0.10285,0.90623 -0.33203,1.79853 -0.35613,2.70807 0.002,0.87504 -0.004,1.75237 0.0809,2.62423 0.11134,0.85095 0.35351,1.65237 0.72841,2.42721 0.28351,0.92039 0.65188,1.81087 0.93997,2.72992 0.28082,0.70349 0.47983,1.4567 0.98544,2.0403 0.45669,0.54584 0.96276,0.90749 1.68752,1.01336 0.82196,0.10093 1.66032,0.0557 2.44586,-0.22731 2.24473,-1.07951 0.37585,-0.19167 -5.15175,3.03937 -0.1098,0.0642 0.22753,-0.11542 0.33218,-0.18767 0.35976,-0.24833 0.72575,-0.50958 1.01673,-0.83783 0.68077,-1.05758 1.19524,-2.24058 1.65475,-3.40685 0,0 6.17627,-2.83817 6.17627,-2.83817 z"
       inkscape:connector-curvature="0"
       inkscape:export-xdpi="9.430829"
       inkscape:export-ydpi="9.430829" />
  </g>
</svg>
