<?xml version="1.0" encoding="UTF-8" standalone="no"?>
<svg
   xmlns:osb="http://www.openswatchbook.org/uri/2009/osb"
   xmlns:dc="http://purl.org/dc/elements/1.1/"
   xmlns:cc="http://creativecommons.org/ns#"
   xmlns:rdf="http://www.w3.org/1999/02/22-rdf-syntax-ns#"
   xmlns:svg="http://www.w3.org/2000/svg"
   xmlns="http://www.w3.org/2000/svg"
   xmlns:xlink="http://www.w3.org/1999/xlink"
   id="svg8"
   version="1.1"
   viewBox="0 0 124.5235 48.383423"
   height="48.383423mm"
   width="124.5235mm">
  <defs
     id="defs2">
    <linearGradient
       id="linearGradient919">
      <stop
         id="stop915"
         offset="0"
         style="stop-color:#000000;stop-opacity:1;" />
      <stop
         id="stop917"
         offset="1"
         style="stop-color:#000000;stop-opacity:0;" />
    </linearGradient>
    <marker
       style="overflow:visible"
       id="Arrow1Lstart"
       refX="0"
       refY="0"
       orient="auto">
      <path
         transform="matrix(0.8,0,0,0.8,10,0)"
         style="fill:#000000;fill-opacity:1;fill-rule:evenodd;stroke:#000000;stroke-width:1.00000003pt;stroke-opacity:1"
         d="M 0,0 5,-5 -12.5,0 5,5 Z"
         id="path2703" />
    </marker>
    <marker
       style="overflow:visible"
       id="Arrow2Lstart"
       refX="0"
       refY="0"
       orient="auto">
      <path
         transform="matrix(1.1,0,0,1.1,1.1,0)"
         d="M 8.7185878,4.0337352 -2.2072895,0.01601326 8.7185884,-4.0017078 c -1.7454984,2.3720609 -1.7354408,5.6174519 -6e-7,8.035443 z"
         style="fill:#000000;fill-opacity:1;fill-rule:evenodd;stroke:#000000;stroke-width:0.625;stroke-linejoin:round;stroke-opacity:1"
         id="path2721" />
    </marker>
    <linearGradient
       osb:paint="solid"
       id="linearGradient2441">
      <stop
         id="stop2439"
         offset="0"
         style="stop-color:#666666;stop-opacity:1;" />
    </linearGradient>
    <linearGradient
       id="linearGradient3382">
      <stop
         id="stop3378"
         offset="0"
         style="stop-color:#000000;stop-opacity:1;" />
      <stop
         id="stop3380"
         offset="1"
         style="stop-color:#000000;stop-opacity:0;" />
    </linearGradient>
    <linearGradient
       y2="174.17297"
       x2="256.61456"
       y1="174.17297"
       x1="100.80896"
       gradientUnits="userSpaceOnUse"
       id="linearGradient1001"
       xlink:href="#linearGradient3382" />
    <linearGradient
       gradientUnits="userSpaceOnUse"
       y2="173.94965"
       x2="260.93121"
       y1="173.94965"
       x1="96.302185"
       id="linearGradient921"
       xlink:href="#linearGradient919" />
    <linearGradient
       y2="173.94965"
       x2="260.93121"
       y1="173.94965"
       x1="96.302185"
       gradientUnits="userSpaceOnUse"
       id="linearGradient995"
       xlink:href="#linearGradient919" />
    <linearGradient
       y2="173.94965"
       x2="260.93121"
       y1="173.94965"
       x1="96.302185"
       gradientUnits="userSpaceOnUse"
       id="linearGradient1189"
       xlink:href="#linearGradient919" />
    <linearGradient
       gradientUnits="userSpaceOnUse"
       y2="335.31897"
       x2="138.45583"
       y1="335.31897"
       x1="52.125572"
       id="linearGradient1317"
       xlink:href="#linearGradient3382" />
  </defs>
  <metadata
     id="metadata5">
    <rdf:RDF>
      <cc:Work
         rdf:about="">
        <dc:format>image/svg+xml</dc:format>
        <dc:type
           rdf:resource="http://purl.org/dc/dcmitype/StillImage" />
        <dc:title></dc:title>
      </cc:Work>
    </rdf:RDF>
  </metadata>
  <g
     transform="translate(-23.93532,-307.30222)"
     id="layer2">
    <path
       d="m 209.28553,222.38747 -209.02081205,0 -7.1e-7,-209.020816 209.02081276,0 z"
       id="path890-5"
       style="opacity:0.80201338;fill:#ffffff;fill-opacity:1;fill-rule:evenodd;stroke:none;stroke-width:2.5921874;stroke-linecap:round;stroke-miterlimit:0;stroke-dasharray:2.59218748, 2.59218748;stroke-dashoffset:0;stroke-opacity:1;paint-order:markers fill stroke" />
    <path
       transform="translate(-76.729146,21.431245)"
       id="path3161-1-9"
       d="m 118.04855,181.37701 c 0.22049,0 -5.07069,1.3228 -9.75577,-0.52264 -4.68507,-1.84543 -8.762009,-6.85849 -6.77746,-10.82728 1.98454,-3.96879 9.82345,-6.81751 17.34236,-6.05544 7.51891,0.76206 13.9632,5.05826 21.81251,10.21763 7.84931,5.15938 16.93329,11.06837 27.20813,12.69992 10.27484,1.63155 21.74006,-1.01427 30.42718,-4.85081 8.68713,-3.83654 14.59633,-8.86377 23.85123,-10.21214 9.2549,-1.34837 21.85644,0.98165 34.45783,3.31164 -0.87152,-3.47652 -1.74309,-6.95323 -7.38219,-9.66151 -5.63911,-2.70829 -16.04574,-4.6485 -25.74739,-2.00272 -9.70165,2.64578 -18.6969,9.87726 -27.73712,14.06673 -9.04022,4.18947 -18.12425,5.336 -27.0758,3.92498 -8.95154,-1.41102 -17.6027,-5.30404 -25.69193,-9.57335 -8.08922,-4.2693 -15.00993,-8.59475 -21.18343,-10.35869 -6.17351,-1.76393 -11.22088,-0.9227 -15.14217,0.23055 -3.92129,1.15326 -6.02437,2.41511 -7.788358,4.84039 -1.763984,2.42528 -3.086902,5.95305 -1.764013,9.04004 1.322889,3.08699 5.291351,5.73263 10.142521,6.39408 4.85117,0.66145 10.58339,-0.66137 10.80387,-0.66138 z"
       style="fill:url(#linearGradient1001);fill-opacity:1;stroke:none;stroke-width:0.26458332px;stroke-linecap:butt;stroke-linejoin:miter;stroke-opacity:1" />
    <path
       id="path821-1-2"
       d="m 138.33005,94.950114 c 2.767,-10.453033 6.30906,-21.964709 10.71867,-32.54768 4.40961,-10.582971 10.60087,-21.933626 13.85994,-27.625695 3.25907,-5.692069 6.25557,-10.388254 10.37528,-15.357073 4.11971,-4.968819 9.79762,-10.8922945 15.47579,-16.8160373 -2.06574,9.0557343 -4.09602,17.9559943 -9.18324,26.1496993 -5.08722,8.193706 -12.88842,15.128106 -18.84184,24.168336 -5.95343,9.040229 -9.92192,20.063805 -13.44981,30.647449 -3.52789,10.583644 -7.23192,22.754037 -9.87782,33.513957 -2.6459,10.75993 -6.86169,30.78492 -9.52062,41.86389 -2.65893,11.07897 -4.41418,16.3447 -6.17807,21.63637 -0.70556,-6.35 -1.40677,-12.66087 0.235,-22.06746 1.64177,-9.40659 5.55892,-21.59327 8.57792,-32.60379 3.01899,-11.01052 5.04181,-20.50893 7.8088,-30.961966 z"
       style="fill:#000000;fill-opacity:0.81097562;stroke:none;stroke-width:0.26458332px;stroke-linecap:butt;stroke-linejoin:miter;stroke-opacity:1"
       transform="translate(-82.020816,22.754155)" />
    <path
       id="path825-5-2"
       d="m 195.79167,62.84375 c 0,-1.763889 0,-3.880905 -0.17639,-5.821045 -0.1764,-1.94014 -0.70556,-5.644268 0.3118,-9.005897 1.01737,-3.361628 3.49236,-6.997066 5.9677,-10.633028 -2.47534,0.990129 -4.94994,1.979961 -6.18799,1.592946 -1.23804,-0.387015 -1.23804,-2.150073 -0.35574,-4.576171 0.8823,-2.426098 2.64566,-5.511977 3.748,-6.834739 1.10234,-1.322763 1.54331,-0.88179 0.22098,-0.661303 -1.32232,0.220488 -4.40958,0.220487 -6.17387,-2.866901 -1.7643,-3.087388 -2.20519,-9.259834 -2.64616,-15.4334453 -1.64465,6.4672953 -3.28872,12.9323393 -5.71471,17.7845143 -2.42598,4.852174 -5.63091,8.085137 -10.1005,13.230211 -4.46958,5.145074 -10.20167,12.199955 -13.95015,18.153326 -3.74849,5.953371 -5.5123,10.803847 -7.71717,16.977463 -2.20486,6.173616 -4.74709,13.376599 -7.0383,20.479309 -2.2912,7.10271 -3.98593,13.03426 -5.74991,19.2082 -1.76398,6.17393 -3.52769,12.3469 -4.8559,17.83371 -1.32821,5.4868 -2.22059,10.28631 -3.11296,15.08575 2.58797,-0.97999 5.17625,-1.9601 7.822,-1.96001 2.64575,9e-5 5.34945,0.98008 8.31438,0.78533 2.96493,-0.19476 6.19092,-1.56406 8.40086,-5.28679 2.20994,-3.72272 3.4041,-9.79869 6.20605,-14.60044 2.80195,-4.80176 7.21159,-8.32946 11.62131,-11.85724 -1.76389,0 -3.5272,0 -3.9683,-0.88226 -0.44111,-0.88226 0.44068,-2.64583 0.88158,-3.52762 0.44089,-0.88179 3.08672,-3.52762 3.08672,-3.52762 1.76389,-1.32292 3.52808,-2.64606 5.38214,-5.72577 1.85407,-3.079719 3.79835,-7.915815 5.74276,-12.752232 -1.71055,-1.23708 -3.42105,-2.474126 -3.51123,-2.922232 -0.0902,-0.448106 1.43983,-0.107248 2.64577,-1.259915 1.20594,-1.152668 2.08788,-3.798506 1.91772,-6.135534 -0.17016,-2.337029 -1.39228,-4.365499 -0.0692,-6.790923 1.32309,-2.425424 5.19074,-5.247422 9.0587,-8.069644 z"
       style="fill:#000000;fill-opacity:0.81097562;stroke:none;stroke-width:0.26458332px;stroke-linecap:butt;stroke-linejoin:miter;stroke-opacity:1"
       transform="translate(-82.020816,22.754155)" />
    <path
       transform="matrix(1.0249483,0,0,0.86459724,-81.472006,27.542855)"
       id="path3206-98-8"
       d="m 162.09469,57.966367 c 6.51075,-3.091004 13.02181,-6.182155 19.04516,-9.803431 6.02334,-3.621275 11.55894,-7.77248 17.09487,-11.92393 -4.30238,3.67223 -8.6041,7.343888 -12.47656,10.200345 -3.87247,2.856457 -7.31383,4.896259 -11.18626,6.68154 -3.87243,1.785281 -8.17483,3.31538 -12.47721,4.845476 z"
       style="fill:#ffffff;fill-opacity:1;stroke:none;stroke-width:0.26458332px;stroke-linecap:butt;stroke-linejoin:miter;stroke-opacity:1" />
    <path
       transform="matrix(1.3505144,0,0,0.6561773,-154.07272,85.847907)"
       id="path3206-9-4-9"
       d="m 163.06271,60.101896 c 4.5636,-2.90065 9.12747,-5.801475 13.86207,-9.497722 4.7346,-3.696248 9.63978,-8.187623 14.54531,-12.67932 -3.25215,3.726718 -6.50392,7.452994 -9.31593,10.505378 -2.81201,3.052383 -5.1839,5.430402 -8.2921,7.263152 -3.10821,1.832749 -6.9541,3.120739 -10.79935,4.408512 z"
       style="fill:#ffffff;fill-opacity:1;stroke:none;stroke-width:0.26458332px;stroke-linecap:butt;stroke-linejoin:miter;stroke-opacity:1" />
    <path
       transform="matrix(1.298572,0,0,0.59055958,-142.14292,60.206435)"
       id="path3206-9-2-8-7"
       d="m 166.51078,65.396694 c 3.87125,-2.538786 7.74281,-5.077782 12.66676,-10.304815 4.92396,-5.227032 10.90026,-13.141632 16.8769,-21.056677 -2.03749,3.733512 -4.07469,7.466479 -7.97997,12.69359 -3.90528,5.227111 -9.67856,11.947883 -13.58343,15.307895 -3.90487,3.360012 -5.94277,3.360009 -7.98026,3.360007 z"
       style="fill:#ffffff;fill-opacity:1;stroke:none;stroke-width:0.26458332px;stroke-linecap:butt;stroke-linejoin:miter;stroke-opacity:1" />
    <path
       transform="matrix(1.2058168,0,0,0.72179505,-142.38419,111.00833)"
       id="path3206-9-2-0-3-1-3"
       d="m 165.25693,56.436279 c 4.54518,-1.96373 9.09067,-3.927594 14.02768,-7.287827 4.937,-3.360233 10.26553,-8.116545 15.59436,-12.873136 -3.9496,4.276566 -7.89877,8.552679 -11.1902,11.668606 -3.29143,3.115927 -5.92466,5.071049 -8.88661,6.292907 -2.96195,1.221858 -6.25388,1.710698 -9.54523,2.19945 z"
       style="fill:#ffffff;fill-opacity:1;stroke:none;stroke-width:0.26458332px;stroke-linecap:butt;stroke-linejoin:miter;stroke-opacity:1" />
    <path
       transform="matrix(1.0249483,0,0,0.86459724,-80.149096,12.990764)"
       id="path3206-8-0-6"
       d="m 172.42043,56.436267 c 3.18376,-1.734105 6.36784,-3.46838 9.37951,-5.508551 3.01167,-2.040171 5.85093,-4.386065 8.69051,-6.732216 -1.89305,1.938126 -3.78566,3.875793 -5.63584,5.610073 -1.85018,1.734279 -3.65689,3.264127 -5.72218,4.335358 -2.06529,1.071232 -4.38871,1.683302 -6.712,2.295336 z"
       style="fill:#ffffff;fill-opacity:1;stroke:none;stroke-width:0.26458332px;stroke-linecap:butt;stroke-linejoin:miter;stroke-opacity:1" />
    <path
       transform="matrix(2.4104205,0,0,1,-130.31784,0)"
       d="m 140.77986,295.55411 -48.383421,0 0,-48.38342 48.383421,0 z"
       id="path890-5-7"
       style="opacity:0.80201338;fill:#ffffff;fill-opacity:0;fill-rule:evenodd;stroke:none;stroke-width:0.60003072;stroke-linecap:round;stroke-miterlimit:0;stroke-dasharray:0.60003075, 0.60003075;stroke-dashoffset:0;stroke-opacity:1;paint-order:markers fill stroke" />
    <path
       transform="matrix(0.67557383,0,0,0.2314766,31.690002,249.03751)"
       id="path3161-1-9-4"
       d="m 103.34577,181.71423 c 0.26679,-0.0398 -1.56066,-1.56362 -3.22535,-3.93349 -1.664682,-2.36987 -3.16592,-5.58435 0.10676,-8.65339 3.27268,-3.06905 11.11159,-5.91777 18.6305,-5.1557 7.51891,0.76206 13.9632,5.05826 21.81251,10.21763 7.84931,5.15938 16.93329,11.06837 27.20813,12.69992 10.27484,1.63155 21.74006,-1.01427 30.42718,-4.85081 8.68713,-3.83654 14.59633,-8.86377 24.50384,-9.63071 9.90751,-0.76693 23.81478,2.72611 37.72164,6.21904 0.65274,-3.81008 1.30561,-7.62091 -4.98709,-10.91054 -6.2927,-3.28964 -19.52763,-6.05893 -30.6441,-3.82784 -11.11646,2.2311 -20.11171,9.46258 -29.15193,13.65205 -9.04022,4.18947 -18.12425,5.336 -27.0758,3.92498 -8.95154,-1.41102 -17.6027,-5.30404 -25.69193,-9.57335 -8.08922,-4.2693 -15.00993,-8.59475 -21.18343,-10.35869 -6.17351,-1.76393 -11.22088,-0.9227 -15.14217,0.23055 -3.92129,1.15326 -6.02437,2.41511 -7.654623,4.12071 -1.63025,1.70561 -2.685781,3.79412 -2.697621,6.02135 -0.01184,2.22724 1.020997,4.59252 2.718327,6.49806 1.697327,1.90554 4.058377,3.35 4.325157,3.31023 z"
       style="fill:url(#linearGradient921);fill-opacity:1;stroke:none;stroke-width:0.26458332px;stroke-linecap:butt;stroke-linejoin:miter;stroke-opacity:1" />
    <path
       id="path821-1-2-5"
       d="m 138.33005,94.950114 c 2.767,-10.453033 6.30906,-21.964709 10.71867,-32.54768 4.40961,-10.582971 10.60087,-21.933626 13.85994,-27.625695 3.25907,-5.692069 6.25557,-10.388254 10.37528,-15.357073 4.11971,-4.968819 9.79762,-10.8922945 15.47579,-16.8160373 -2.06574,9.0557343 -4.09602,17.9559943 -9.18324,26.1496993 -5.08722,8.193706 -12.88842,15.128106 -18.84184,24.168336 -5.95343,9.040229 -9.92192,20.063805 -13.44981,30.647449 -3.52789,10.583644 -7.23192,22.754037 -9.87782,33.513957 -2.6459,10.75993 -6.86169,30.78492 -9.52062,41.86389 -2.65893,11.07897 -4.41418,16.3447 -6.17807,21.63637 -0.70556,-6.35 -1.40677,-12.66087 0.235,-22.06746 1.64177,-9.40659 5.55892,-21.59327 8.57792,-32.60379 3.01899,-11.01052 5.04181,-20.50893 7.8088,-30.961966 z"
       style="fill:#000000;fill-opacity:0.81097562;stroke:none;stroke-width:0.26458332px;stroke-linecap:butt;stroke-linejoin:miter;stroke-opacity:1"
       transform="matrix(0.2314766,0,0,0.2314766,73.349246,249.34372)" />
    <path
       id="path825-5-2-2"
       d="m 195.79167,62.84375 c 0,-1.763889 0,-3.880905 -0.17639,-5.821045 -0.1764,-1.94014 -0.70556,-5.644268 0.3118,-9.005897 1.01737,-3.361628 3.49236,-6.997066 5.9677,-10.633028 -2.47534,0.990129 -4.94994,1.979961 -6.18799,1.592946 -1.23804,-0.387015 -1.23804,-2.150073 -0.35574,-4.576171 0.8823,-2.426098 2.64566,-5.511977 3.748,-6.834739 1.10234,-1.322763 1.54331,-0.88179 0.22098,-0.661303 -1.32232,0.220488 -4.40958,0.220487 -6.17387,-2.866901 -1.7643,-3.087388 -2.20519,-9.259834 -2.64616,-15.4334453 -1.64465,6.4672953 -3.28872,12.9323393 -5.71471,17.7845143 -2.42598,4.852174 -5.63091,8.085137 -10.1005,13.230211 -4.46958,5.145074 -10.20167,12.199955 -13.95015,18.153326 -3.74849,5.953371 -5.5123,10.803847 -7.71717,16.977463 -2.20486,6.173616 -4.74709,13.376599 -7.0383,20.479309 -2.2912,7.10271 -3.98593,13.03426 -5.74991,19.2082 -1.76398,6.17393 -3.52769,12.3469 -4.8559,17.83371 -1.32821,5.4868 -2.22059,10.28631 -3.11296,15.08575 2.58797,-0.97999 5.17625,-1.9601 7.822,-1.96001 2.64575,9e-5 5.34945,0.98008 8.31438,0.78533 2.96493,-0.19476 6.19092,-1.56406 8.40086,-5.28679 2.20994,-3.72272 3.4041,-9.79869 6.20605,-14.60044 2.80195,-4.80176 7.21159,-8.32946 11.62131,-11.85724 -1.76389,0 -3.5272,0 -3.9683,-0.88226 -0.44111,-0.88226 0.44068,-2.64583 0.88158,-3.52762 0.44089,-0.88179 3.08672,-3.52762 3.08672,-3.52762 1.76389,-1.32292 3.52808,-2.64606 5.38214,-5.72577 1.85407,-3.079719 3.79835,-7.915815 5.74276,-12.752232 -1.71055,-1.23708 -3.42105,-2.474126 -3.51123,-2.922232 -0.0902,-0.448106 1.43983,-0.107248 2.64577,-1.259915 1.20594,-1.152668 2.08788,-3.798506 1.91772,-6.135534 -0.17016,-2.337029 -1.39228,-4.365499 -0.0692,-6.790923 1.32309,-2.425424 5.19074,-5.247422 9.0587,-8.069644 z"
       style="fill:#000000;fill-opacity:0.81097562;stroke:none;stroke-width:0.26458332px;stroke-linecap:butt;stroke-linejoin:miter;stroke-opacity:1"
       transform="matrix(0.2314766,0,0,0.2314766,73.349246,249.34372)" />
    <path
       transform="matrix(0.23725155,0,0,0.20013403,73.476283,250.45219)"
       id="path3206-98-8-5"
       d="m 162.09469,57.966367 c 6.51075,-3.091004 13.02181,-6.182155 19.04516,-9.803431 6.02334,-3.621275 11.55894,-7.77248 17.09487,-11.92393 -4.30238,3.67223 -8.6041,7.343888 -12.47656,10.200345 -3.87247,2.856457 -7.31383,4.896259 -11.18626,6.68154 -3.87243,1.785281 -8.17483,3.31538 -12.47721,4.845476 z"
       style="fill:#ffffff;fill-opacity:1;stroke:none;stroke-width:0.26458332px;stroke-linecap:butt;stroke-linejoin:miter;stroke-opacity:1" />
    <path
       transform="matrix(0.31261249,0,0,0.15188968,56.670916,263.94845)"
       id="path3206-9-4-9-4"
       d="m 163.06271,60.101896 c 4.5636,-2.90065 9.12747,-5.801475 13.86207,-9.497722 4.7346,-3.696248 9.63978,-8.187623 14.54531,-12.67932 -3.25215,3.726718 -6.50392,7.452994 -9.31593,10.505378 -2.81201,3.052383 -5.1839,5.430402 -8.2921,7.263152 -3.10821,1.832749 -6.9541,3.120739 -10.79935,4.408512 z"
       style="fill:#ffffff;fill-opacity:1;stroke:none;stroke-width:0.26458332px;stroke-linecap:butt;stroke-linejoin:miter;stroke-opacity:1" />
    <path
       transform="matrix(0.30058902,0,0,0.13670072,59.432383,258.01305)"
       id="path3206-9-2-8-7-7"
       d="m 166.51078,65.396694 c 3.87125,-2.538786 7.74281,-5.077782 12.66676,-10.304815 4.92396,-5.227032 10.90026,-13.141632 16.8769,-21.056677 -2.03749,3.733512 -4.07469,7.466479 -7.97997,12.69359 -3.90528,5.227111 -9.67856,11.947883 -13.58343,15.307895 -3.90487,3.360012 -5.94277,3.360009 -7.98026,3.360007 z"
       style="fill:#ffffff;fill-opacity:1;stroke:none;stroke-width:0.26458332px;stroke-linecap:butt;stroke-linejoin:miter;stroke-opacity:1" />
    <path
       transform="matrix(0.27911836,0,0,0.16707865,59.376535,269.7725)"
       id="path3206-9-2-0-3-1-3-4"
       d="m 165.25693,56.436279 c 4.54518,-1.96373 9.09067,-3.927594 14.02768,-7.287827 4.937,-3.360233 10.26553,-8.116545 15.59436,-12.873136 -3.9496,4.276566 -7.89877,8.552679 -11.1902,11.668606 -3.29143,3.115927 -5.92466,5.071049 -8.88661,6.292907 -2.96195,1.221858 -6.25388,1.710698 -9.54523,2.19945 z"
       style="fill:#ffffff;fill-opacity:1;stroke:none;stroke-width:0.26458332px;stroke-linecap:butt;stroke-linejoin:miter;stroke-opacity:1" />
    <path
       transform="matrix(0.23725155,0,0,0.20013403,73.782505,247.08374)"
       id="path3206-8-0-6-4"
       d="m 172.42043,56.436267 c 3.18376,-1.734105 6.36784,-3.46838 9.37951,-5.508551 3.01167,-2.040171 5.85093,-4.386065 8.69051,-6.732216 -1.89305,1.938126 -3.78566,3.875793 -5.63584,5.610073 -1.85018,1.734279 -3.65689,3.264127 -5.72218,4.335358 -2.06529,1.071232 -4.38871,1.683302 -6.712,2.295336 z"
       style="fill:#ffffff;fill-opacity:1;stroke:none;stroke-width:0.26458332px;stroke-linecap:butt;stroke-linejoin:miter;stroke-opacity:1" />
  </g>
  <g
     transform="translate(-23.93532,-307.30222)"
     id="layer1">
    <text
       id="text3462"
       y="280.9079"
       x="123.31041"
       style="font-style:normal;font-variant:normal;font-weight:normal;font-stretch:normal;font-size:12.78461933px;line-height:1.25;font-family:HalfbreD;-inkscape-font-specification:'HalfbreD, Normal';font-variant-ligatures:normal;font-variant-caps:normal;font-variant-numeric:normal;font-feature-settings:normal;text-align:start;letter-spacing:0px;word-spacing:0px;writing-mode:lr-tb;text-anchor:start;fill:#000000;fill-opacity:1;stroke:none;stroke-width:0.31961548"
       xml:space="preserve"><tspan
         style="font-style:normal;font-variant:normal;font-weight:normal;font-stretch:normal;font-size:20.45539093px;font-family:HalfbreD;-inkscape-font-specification:'HalfbreD, Normal';font-variant-ligatures:normal;font-variant-caps:normal;font-variant-numeric:normal;font-feature-settings:normal;text-align:start;writing-mode:lr-tb;text-anchor:start;stroke-width:0.31961548"
         y="280.9079"
         x="123.31041"
         id="tspan3460">Letters</tspan></text>
    <path
       transform="matrix(2.4104205,0,0,1,-198.77895,60.131536)"
       d="m 140.77986,295.55411 -48.383421,0 0,-48.38342 48.383421,0 z"
       id="path890-5-7-6"
       style="opacity:0.80201338;fill:#ffffff;fill-opacity:0;fill-rule:evenodd;stroke:none;stroke-width:0.60003072;stroke-linecap:round;stroke-miterlimit:0;stroke-dasharray:0.60003075, 0.60003075;stroke-dashoffset:0;stroke-opacity:1;paint-order:markers fill stroke" />
    <path
       transform="matrix(0.72994832,0,0,0.2314766,-42.007484,309.16905)"
       id="path3161-1-9-4-5"
       d="m 103.34577,181.71423 c 0.26679,-0.0398 -1.56066,-1.56362 -3.22535,-3.93349 -1.664682,-2.36987 -3.16592,-5.58435 0.10676,-8.65339 3.27268,-3.06905 11.11159,-5.91777 18.6305,-5.1557 7.51891,0.76206 13.9632,5.05826 21.81251,10.21763 7.84931,5.15938 16.93329,11.06837 27.20813,12.69992 10.27484,1.63155 21.74006,-1.01427 30.42718,-4.85081 8.68713,-3.83654 14.59633,-8.86377 24.50384,-9.63071 9.90751,-0.76693 23.81478,2.72611 37.72164,6.21904 0.65274,-3.81008 1.30561,-7.62091 -4.98709,-10.91054 -6.2927,-3.28964 -19.52763,-6.05893 -30.6441,-3.82784 -11.11646,2.2311 -20.11171,9.46258 -29.15193,13.65205 -9.04022,4.18947 -18.12425,5.336 -27.0758,3.92498 -8.95154,-1.41102 -17.6027,-5.30404 -25.69193,-9.57335 -8.08922,-4.2693 -15.00993,-8.59475 -21.18343,-10.35869 -6.17351,-1.76393 -11.22088,-0.9227 -15.14217,0.23055 -3.92129,1.15326 -6.02437,2.41511 -7.654623,4.12071 -1.63025,1.70561 -2.685781,3.79412 -2.697621,6.02135 -0.01184,2.22724 1.020997,4.59252 2.718327,6.49806 1.697327,1.90554 4.058377,3.35 4.325157,3.31023 z"
       style="fill:url(#linearGradient995);fill-opacity:1;stroke:none;stroke-width:0.26458332px;stroke-linecap:butt;stroke-linejoin:miter;stroke-opacity:1" />
    <path
       id="path821-1-2-5-8"
       d="m 138.33005,94.950114 c 2.767,-10.453033 6.30906,-21.964709 10.71867,-32.54768 4.40961,-10.582971 10.60087,-21.933626 13.85994,-27.625695 3.25907,-5.692069 6.25557,-10.388254 10.37528,-15.357073 4.11971,-4.968819 9.79762,-10.8922945 15.47579,-16.8160373 -2.06574,9.0557343 -4.09602,17.9559943 -9.18324,26.1496993 -5.08722,8.193706 -12.88842,15.128106 -18.84184,24.168336 -5.95343,9.040229 -9.92192,20.063805 -13.44981,30.647449 -3.52789,10.583644 -7.23192,22.754037 -9.87782,33.513957 -2.6459,10.75993 -6.86169,30.78492 -9.52062,41.86389 -2.65893,11.07897 -4.41418,16.3447 -6.17807,21.63637 -0.70556,-6.35 -1.40677,-12.66087 0.235,-22.06746 1.64177,-9.40659 5.55892,-21.59327 8.57792,-32.60379 3.01899,-11.01052 5.04181,-20.50893 7.8088,-30.961966 z"
       style="fill:#000000;fill-opacity:0.81097562;stroke:none;stroke-width:0.26458332px;stroke-linecap:butt;stroke-linejoin:miter;stroke-opacity:1"
       transform="matrix(0.2314766,0,0,0.2314766,4.888145,309.47526)" />
    <path
       id="path825-5-2-2-7"
       d="m 195.79167,62.84375 c 0,-1.763889 0,-3.880905 -0.17639,-5.821045 -0.1764,-1.94014 -0.70556,-5.644268 0.3118,-9.005897 1.01737,-3.361628 3.49236,-6.997066 5.9677,-10.633028 -2.47534,0.990129 -4.94994,1.979961 -6.18799,1.592946 -1.23804,-0.387015 -1.23804,-2.150073 -0.35574,-4.576171 0.8823,-2.426098 2.64566,-5.511977 3.748,-6.834739 1.10234,-1.322763 1.54331,-0.88179 0.22098,-0.661303 -1.32232,0.220488 -4.40958,0.220487 -6.17387,-2.866901 -1.7643,-3.087388 -2.20519,-9.259834 -2.64616,-15.4334453 -1.64465,6.4672953 -3.28872,12.9323393 -5.71471,17.7845143 -2.42598,4.852174 -5.63091,8.085137 -10.1005,13.230211 -4.46958,5.145074 -10.20167,12.199955 -13.95015,18.153326 -3.74849,5.953371 -5.5123,10.803847 -7.71717,16.977463 -2.20486,6.173616 -4.74709,13.376599 -7.0383,20.479309 -2.2912,7.10271 -3.98593,13.03426 -5.74991,19.2082 -1.76398,6.17393 -3.52769,12.3469 -4.8559,17.83371 -1.32821,5.4868 -2.22059,10.28631 -3.11296,15.08575 2.58797,-0.97999 5.17625,-1.9601 7.822,-1.96001 2.64575,9e-5 5.34945,0.98008 8.31438,0.78533 2.96493,-0.19476 6.19092,-1.56406 8.40086,-5.28679 2.20994,-3.72272 3.4041,-9.79869 6.20605,-14.60044 2.80195,-4.80176 7.21159,-8.32946 11.62131,-11.85724 -1.76389,0 -3.5272,0 -3.9683,-0.88226 -0.44111,-0.88226 0.44068,-2.64583 0.88158,-3.52762 0.44089,-0.88179 3.08672,-3.52762 3.08672,-3.52762 1.76389,-1.32292 3.52808,-2.64606 5.38214,-5.72577 1.85407,-3.079719 3.79835,-7.915815 5.74276,-12.752232 -1.71055,-1.23708 -3.42105,-2.474126 -3.51123,-2.922232 -0.0902,-0.448106 1.43983,-0.107248 2.64577,-1.259915 1.20594,-1.152668 2.08788,-3.798506 1.91772,-6.135534 -0.17016,-2.337029 -1.39228,-4.365499 -0.0692,-6.790923 1.32309,-2.425424 5.19074,-5.247422 9.0587,-8.069644 z"
       style="fill:#000000;fill-opacity:0.81097562;stroke:none;stroke-width:0.26458332px;stroke-linecap:butt;stroke-linejoin:miter;stroke-opacity:1"
       transform="matrix(0.2314766,0,0,0.2314766,4.888145,309.47526)" />
    <path
       transform="matrix(0.23725155,0,0,0.20013403,5.015175,310.58373)"
       id="path3206-98-8-5-9"
       d="m 162.09469,57.966367 c 6.51075,-3.091004 13.02181,-6.182155 19.04516,-9.803431 6.02334,-3.621275 11.55894,-7.77248 17.09487,-11.92393 -4.30238,3.67223 -8.6041,7.343888 -12.47656,10.200345 -3.87247,2.856457 -7.31383,4.896259 -11.18626,6.68154 -3.87243,1.785281 -8.17483,3.31538 -12.47721,4.845476 z"
       style="fill:#ffffff;fill-opacity:1;stroke:none;stroke-width:0.26458332px;stroke-linecap:butt;stroke-linejoin:miter;stroke-opacity:1" />
    <path
       transform="matrix(0.31261248,0,0,0.15188968,-11.790185,324.07999)"
       id="path3206-9-4-9-4-6"
       d="m 163.06271,60.101896 c 4.5636,-2.90065 9.12747,-5.801475 13.86207,-9.497722 4.7346,-3.696248 9.63978,-8.187623 14.54531,-12.67932 -3.25215,3.726718 -6.50392,7.452994 -9.31593,10.505378 -2.81201,3.052383 -5.1839,5.430402 -8.2921,7.263152 -3.10821,1.832749 -6.9541,3.120739 -10.79935,4.408512 z"
       style="fill:#ffffff;fill-opacity:1;stroke:none;stroke-width:0.26458332px;stroke-linecap:butt;stroke-linejoin:miter;stroke-opacity:1" />
    <path
       transform="matrix(0.30058902,0,0,0.13670072,-9.028725,318.14459)"
       id="path3206-9-2-8-7-7-0"
       d="m 166.51078,65.396694 c 3.87125,-2.538786 7.74281,-5.077782 12.66676,-10.304815 4.92396,-5.227032 10.90026,-13.141632 16.8769,-21.056677 -2.03749,3.733512 -4.07469,7.466479 -7.97997,12.69359 -3.90528,5.227111 -9.67856,11.947883 -13.58343,15.307895 -3.90487,3.360012 -5.94277,3.360009 -7.98026,3.360007 z"
       style="fill:#ffffff;fill-opacity:1;stroke:none;stroke-width:0.26458332px;stroke-linecap:butt;stroke-linejoin:miter;stroke-opacity:1" />
    <path
       transform="matrix(0.27911835,0,0,0.16707865,-9.084575,329.90404)"
       id="path3206-9-2-0-3-1-3-4-4"
       d="m 165.25693,56.436279 c 4.54518,-1.96373 9.09067,-3.927594 14.02768,-7.287827 4.937,-3.360233 10.26553,-8.116545 15.59436,-12.873136 -3.9496,4.276566 -7.89877,8.552679 -11.1902,11.668606 -3.29143,3.115927 -5.92466,5.071049 -8.88661,6.292907 -2.96195,1.221858 -6.25388,1.710698 -9.54523,2.19945 z"
       style="fill:#ffffff;fill-opacity:1;stroke:none;stroke-width:0.26458332px;stroke-linecap:butt;stroke-linejoin:miter;stroke-opacity:1" />
    <path
       transform="matrix(0.23725155,0,0,0.20013403,5.321395,307.21528)"
       id="path3206-8-0-6-4-1"
       d="m 172.42043,56.436267 c 3.18376,-1.734105 6.36784,-3.46838 9.37951,-5.508551 3.01167,-2.040171 5.85093,-4.386065 8.69051,-6.732216 -1.89305,1.938126 -3.78566,3.875793 -5.63584,5.610073 -1.85018,1.734279 -3.65689,3.264127 -5.72218,4.335358 -2.06529,1.071232 -4.38871,1.683302 -6.712,2.295336 z"
       style="fill:#ffffff;fill-opacity:1;stroke:none;stroke-width:0.26458332px;stroke-linecap:butt;stroke-linejoin:miter;stroke-opacity:1" />
    <text
       id="text3462-0"
       y="347.01089"
       x="52.698708"
       style="font-style:normal;font-variant:normal;font-weight:normal;font-stretch:normal;font-size:33.53648758px;line-height:1.25;font-family:'Petit Formal Script';-inkscape-font-specification:'Petit Formal Script, Normal';font-variant-ligatures:normal;font-variant-caps:normal;font-variant-numeric:normal;font-feature-settings:normal;text-align:start;letter-spacing:0px;word-spacing:0px;writing-mode:lr-tb;text-anchor:start;fill:#434343;fill-opacity:1;stroke:none;stroke-width:0.83840913"
       xml:space="preserve"><tspan
         style="font-style:normal;font-variant:normal;font-weight:normal;font-stretch:normal;font-size:33.53648758px;font-family:'Petit Formal Script';-inkscape-font-specification:'Petit Formal Script, Normal';font-variant-ligatures:normal;font-variant-caps:normal;font-variant-numeric:normal;font-feature-settings:normal;text-align:start;writing-mode:lr-tb;text-anchor:start;fill:#434343;fill-opacity:1;stroke-width:0.83840913"
         y="347.01089"
         x="52.698708"
         id="tspan3460-4">etters</tspan></text>
    <text
       id="text3462-0-4-5"
       y="392.07101"
       x="40.785568"
       style="font-style:normal;font-variant:normal;font-weight:normal;font-stretch:normal;font-size:31.61699104px;line-height:1.25;font-family:'Petit Formal Script';-inkscape-font-specification:'Petit Formal Script, Normal';font-variant-ligatures:normal;font-variant-caps:normal;font-variant-numeric:normal;font-feature-settings:normal;text-align:start;letter-spacing:0px;word-spacing:0px;writing-mode:lr-tb;text-anchor:start;fill:#000000;fill-opacity:1;stroke:none;stroke-width:0.79042196"
       xml:space="preserve"><tspan
         style="font-style:normal;font-variant:normal;font-weight:normal;font-stretch:normal;font-size:31.61699104px;font-family:'Petit Formal Script';-inkscape-font-specification:'Petit Formal Script, Normal';font-variant-ligatures:normal;font-variant-caps:normal;font-variant-numeric:normal;font-feature-settings:normal;text-align:start;writing-mode:lr-tb;text-anchor:start;stroke-width:0.79042196"
         y="392.07101"
         x="40.785568"
         id="tspan3460-4-1-4">Letters</tspan></text>
    <path
       transform="matrix(2.4104205,0,0,1,-201.75533,110.68348)"
       d="m 140.77986,295.55411 -48.383421,0 0,-48.38342 48.383421,0 z"
       id="path890-5-7-6-2"
       style="opacity:0.80201338;fill:#ffffff;fill-opacity:0;fill-rule:evenodd;stroke:none;stroke-width:0.60003072;stroke-linecap:round;stroke-miterlimit:0;stroke-dasharray:0.60003075, 0.60003075;stroke-dashoffset:0;stroke-opacity:1;paint-order:markers fill stroke" />
    <path
       transform="matrix(0.74807171,0,0,0.2314766,-46.729189,359.72099)"
       id="path3161-1-9-4-5-7"
       d="m 103.34577,181.71423 c 0.26679,-0.0398 -1.56066,-1.56362 -3.22535,-3.93349 -1.664682,-2.36987 -3.16592,-5.58435 0.10676,-8.65339 3.27268,-3.06905 11.11159,-5.91777 18.6305,-5.1557 7.51891,0.76206 13.9632,5.05826 21.81251,10.21763 7.84931,5.15938 16.93329,11.06837 27.20813,12.69992 10.27484,1.63155 21.74006,-1.01427 30.42718,-4.85081 8.68713,-3.83654 14.59633,-8.86377 24.50384,-9.63071 9.90751,-0.76693 23.81478,2.72611 37.72164,6.21904 0.65274,-3.81008 1.30561,-7.62091 -4.98709,-10.91054 -6.2927,-3.28964 -19.52763,-6.05893 -30.6441,-3.82784 -11.11646,2.2311 -20.11171,9.46258 -29.15193,13.65205 -9.04022,4.18947 -18.12425,5.336 -27.0758,3.92498 -8.95154,-1.41102 -17.6027,-5.30404 -25.69193,-9.57335 -8.08922,-4.2693 -15.00993,-8.59475 -21.18343,-10.35869 -6.17351,-1.76393 -11.22088,-0.9227 -15.14217,0.23055 -3.92129,1.15326 -6.02437,2.41511 -7.654623,4.12071 -1.63025,1.70561 -2.685781,3.79412 -2.697621,6.02135 -0.01184,2.22724 1.020997,4.59252 2.718327,6.49806 1.697327,1.90554 4.058377,3.35 4.325157,3.31023 z"
       style="fill:url(#linearGradient1189);fill-opacity:1;stroke:none;stroke-width:0.26458332px;stroke-linecap:butt;stroke-linejoin:miter;stroke-opacity:1" />
    <path
       id="path821-1-2-5-8-0"
       d="m 138.33005,94.950114 c 2.767,-10.453033 6.30906,-21.964709 10.71867,-32.54768 4.40961,-10.582971 10.60087,-21.933626 13.85994,-27.625695 3.25907,-5.692069 6.25557,-10.388254 10.37528,-15.357073 4.11971,-4.968819 9.79762,-10.8922945 15.47579,-16.8160373 -2.06574,9.0557343 -4.09602,17.9559943 -9.18324,26.1496993 -5.08722,8.193706 -12.88842,15.128106 -18.84184,24.168336 -5.95343,9.040229 -9.92192,20.063805 -13.44981,30.647449 -3.52789,10.583644 -7.23192,22.754037 -9.87782,33.513957 -2.6459,10.75993 -6.86169,30.78492 -9.52062,41.86389 -2.65893,11.07897 -4.41418,16.3447 -6.17807,21.63637 -0.70556,-6.35 -1.40677,-12.66087 0.235,-22.06746 1.64177,-9.40659 5.55892,-21.59327 8.57792,-32.60379 3.01899,-11.01052 5.04181,-20.50893 7.8088,-30.961966 z"
       style="fill:#000000;fill-opacity:0.81097562;stroke:none;stroke-width:0.26458332px;stroke-linecap:butt;stroke-linejoin:miter;stroke-opacity:1"
       transform="matrix(0.2314766,0,0,0.2314766,1.9117613,360.02722)" />
    <path
       id="path825-5-2-2-7-3"
       d="m 195.79167,62.84375 c 0,-1.763889 0,-3.880905 -0.17639,-5.821045 -0.1764,-1.94014 -0.70556,-5.644268 0.3118,-9.005897 1.01737,-3.361628 3.49236,-6.997066 5.9677,-10.633028 -2.47534,0.990129 -4.94994,1.979961 -6.18799,1.592946 -1.23804,-0.387015 -1.23804,-2.150073 -0.35574,-4.576171 0.8823,-2.426098 2.64566,-5.511977 3.748,-6.834739 1.10234,-1.322763 1.54331,-0.88179 0.22098,-0.661303 -1.32232,0.220488 -4.40958,0.220487 -6.17387,-2.866901 -1.7643,-3.087388 -2.20519,-9.259834 -2.64616,-15.4334453 -1.64465,6.4672953 -3.28872,12.9323393 -5.71471,17.7845143 -2.42598,4.852174 -5.63091,8.085137 -10.1005,13.230211 -4.46958,5.145074 -10.20167,12.199955 -13.95015,18.153326 -3.74849,5.953371 -5.5123,10.803847 -7.71717,16.977463 -2.20486,6.173616 -4.74709,13.376599 -7.0383,20.479309 -2.2912,7.10271 -3.98593,13.03426 -5.74991,19.2082 -1.76398,6.17393 -3.52769,12.3469 -4.8559,17.83371 -1.32821,5.4868 -2.22059,10.28631 -3.11296,15.08575 2.58797,-0.97999 5.17625,-1.9601 7.822,-1.96001 2.64575,9e-5 5.34945,0.98008 8.31438,0.78533 2.96493,-0.19476 6.19092,-1.56406 8.40086,-5.28679 2.20994,-3.72272 3.4041,-9.79869 6.20605,-14.60044 2.80195,-4.80176 7.21159,-8.32946 11.62131,-11.85724 -1.76389,0 -3.5272,0 -3.9683,-0.88226 -0.44111,-0.88226 0.44068,-2.64583 0.88158,-3.52762 0.44089,-0.88179 3.08672,-3.52762 3.08672,-3.52762 1.76389,-1.32292 3.52808,-2.64606 5.38214,-5.72577 1.85407,-3.079719 3.79835,-7.915815 5.74276,-12.752232 -1.71055,-1.23708 -3.42105,-2.474126 -3.51123,-2.922232 -0.0902,-0.448106 1.43983,-0.107248 2.64577,-1.259915 1.20594,-1.152668 2.08788,-3.798506 1.91772,-6.135534 -0.17016,-2.337029 -1.39228,-4.365499 -0.0692,-6.790923 1.32309,-2.425424 5.19074,-5.247422 9.0587,-8.069644 z"
       style="fill:#000000;fill-opacity:0.81097562;stroke:none;stroke-width:0.26458332px;stroke-linecap:butt;stroke-linejoin:miter;stroke-opacity:1"
       transform="matrix(0.2314766,0,0,0.2314766,1.9117613,360.02722)" />
    <path
       transform="matrix(0.23725155,0,0,0.20013403,2.0387913,361.13569)"
       id="path3206-98-8-5-9-4"
       d="m 162.09469,57.966367 c 6.51075,-3.091004 13.02181,-6.182155 19.04516,-9.803431 6.02334,-3.621275 11.55894,-7.77248 17.09487,-11.92393 -4.30238,3.67223 -8.6041,7.343888 -12.47656,10.200345 -3.87247,2.856457 -7.31383,4.896259 -11.18626,6.68154 -3.87243,1.785281 -8.17483,3.31538 -12.47721,4.845476 z"
       style="fill:#ffffff;fill-opacity:1;stroke:none;stroke-width:0.26458332px;stroke-linecap:butt;stroke-linejoin:miter;stroke-opacity:1" />
    <path
       transform="matrix(0.31261248,0,0,0.15188968,-14.766569,374.63195)"
       id="path3206-9-4-9-4-6-6"
       d="m 163.06271,60.101896 c 4.5636,-2.90065 9.12747,-5.801475 13.86207,-9.497722 4.7346,-3.696248 9.63978,-8.187623 14.54531,-12.67932 -3.25215,3.726718 -6.50392,7.452994 -9.31593,10.505378 -2.81201,3.052383 -5.1839,5.430402 -8.2921,7.263152 -3.10821,1.832749 -6.9541,3.120739 -10.79935,4.408512 z"
       style="fill:#ffffff;fill-opacity:1;stroke:none;stroke-width:0.26458332px;stroke-linecap:butt;stroke-linejoin:miter;stroke-opacity:1" />
    <path
       transform="matrix(0.30058902,0,0,0.13670072,-12.00511,368.69653)"
       id="path3206-9-2-8-7-7-0-3"
       d="m 166.51078,65.396694 c 3.87125,-2.538786 7.74281,-5.077782 12.66676,-10.304815 4.92396,-5.227032 10.90026,-13.141632 16.8769,-21.056677 -2.03749,3.733512 -4.07469,7.466479 -7.97997,12.69359 -3.90528,5.227111 -9.67856,11.947883 -13.58343,15.307895 -3.90487,3.360012 -5.94277,3.360009 -7.98026,3.360007 z"
       style="fill:#ffffff;fill-opacity:1;stroke:none;stroke-width:0.26458332px;stroke-linecap:butt;stroke-linejoin:miter;stroke-opacity:1" />
    <path
       transform="matrix(0.27911835,0,0,0.16707865,-12.060958,380.45599)"
       id="path3206-9-2-0-3-1-3-4-4-6"
       d="m 165.25693,56.436279 c 4.54518,-1.96373 9.09067,-3.927594 14.02768,-7.287827 4.937,-3.360233 10.26553,-8.116545 15.59436,-12.873136 -3.9496,4.276566 -7.89877,8.552679 -11.1902,11.668606 -3.29143,3.115927 -5.92466,5.071049 -8.88661,6.292907 -2.96195,1.221858 -6.25388,1.710698 -9.54523,2.19945 z"
       style="fill:#ffffff;fill-opacity:1;stroke:none;stroke-width:0.26458332px;stroke-linecap:butt;stroke-linejoin:miter;stroke-opacity:1" />
    <path
       transform="matrix(0.23725155,0,0,0.20013403,2.3450113,357.76722)"
       id="path3206-8-0-6-4-1-3"
       d="m 172.42043,56.436267 c 3.18376,-1.734105 6.36784,-3.46838 9.37951,-5.508551 3.01167,-2.040171 5.85093,-4.386065 8.69051,-6.732216 -1.89305,1.938126 -3.78566,3.875793 -5.63584,5.610073 -1.85018,1.734279 -3.65689,3.264127 -5.72218,4.335358 -2.06529,1.071232 -4.38871,1.683302 -6.712,2.295336 z"
       style="fill:#ffffff;fill-opacity:1;stroke:none;stroke-width:0.26458332px;stroke-linecap:butt;stroke-linejoin:miter;stroke-opacity:1" />
  </g>
</svg>
