<?xml version="1.0" encoding="UTF-8" standalone="no"?>
<!-- Created with Inkscape (http://www.inkscape.org/) -->

<svg
   xmlns:osb="http://www.openswatchbook.org/uri/2009/osb"
   xmlns:dc="http://purl.org/dc/elements/1.1/"
   xmlns:cc="http://creativecommons.org/ns#"
   xmlns:rdf="http://www.w3.org/1999/02/22-rdf-syntax-ns#"
   xmlns:svg="http://www.w3.org/2000/svg"
   xmlns="http://www.w3.org/2000/svg"
   xmlns:xlink="http://www.w3.org/1999/xlink"
   xmlns:sodipodi="http://sodipodi.sourceforge.net/DTD/sodipodi-0.dtd"
   xmlns:inkscape="http://www.inkscape.org/namespaces/inkscape"
   width="210mm"
   height="297mm"
   viewBox="0 0 210 297"
   version="1.1"
   id="svg8"
   inkscape:version="0.92.4 (unknown)"
   sodipodi:docname="feather_01.svg">
  <defs
     id="defs2">
    <linearGradient
       inkscape:collect="always"
       id="linearGradient919">
      <stop
         style="stop-color:#000000;stop-opacity:1;"
         offset="0"
         id="stop915" />
      <stop
         style="stop-color:#000000;stop-opacity:0;"
         offset="1"
         id="stop917" />
    </linearGradient>
    <inkscape:path-effect
       effect="bspline"
       id="path-effect3208"
       is_visible="true"
       weight="33.333333"
       steps="2"
       helper_size="0"
       apply_no_weight="true"
       apply_with_weight="true"
       only_selected="false" />
    <inkscape:path-effect
       effect="bspline"
       id="path-effect3163"
       is_visible="true"
       weight="33.333333"
       steps="2"
       helper_size="0"
       apply_no_weight="true"
       apply_with_weight="true"
       only_selected="false" />
    <marker
       inkscape:stockid="Arrow1Lstart"
       orient="auto"
       refY="0.0"
       refX="0.0"
       id="Arrow1Lstart"
       style="overflow:visible"
       inkscape:isstock="true">
      <path
         id="path2703"
         d="M 0.0,0.0 L 5.0,-5.0 L -12.5,0.0 L 5.0,5.0 L 0.0,0.0 z "
         style="fill-rule:evenodd;stroke:#000000;stroke-width:1pt;stroke-opacity:1;fill:#000000;fill-opacity:1"
         transform="scale(0.8) translate(12.5,0)" />
    </marker>
    <marker
       inkscape:stockid="Arrow2Lstart"
       orient="auto"
       refY="0.0"
       refX="0.0"
       id="Arrow2Lstart"
       style="overflow:visible"
       inkscape:isstock="true">
      <path
         id="path2721"
         style="fill-rule:evenodd;stroke-width:0.625;stroke-linejoin:round;stroke:#000000;stroke-opacity:1;fill:#000000;fill-opacity:1"
         d="M 8.7185878,4.0337352 L -2.2072895,0.016013256 L 8.7185884,-4.0017078 C 6.9730900,-1.6296469 6.9831476,1.6157441 8.7185878,4.0337352 z "
         transform="scale(1.1) translate(1,0)" />
    </marker>
    <linearGradient
       id="linearGradient2441"
       osb:paint="solid">
      <stop
         style="stop-color:#666666;stop-opacity:1;"
         offset="0"
         id="stop2439" />
    </linearGradient>
    <inkscape:path-effect
       effect="bspline"
       id="path-effect827"
       is_visible="true"
       weight="33.333333"
       steps="2"
       helper_size="0"
       apply_no_weight="true"
       apply_with_weight="true"
       only_selected="false" />
    <inkscape:path-effect
       effect="bspline"
       id="path-effect823"
       is_visible="true"
       weight="33.333333"
       steps="2"
       helper_size="0"
       apply_no_weight="true"
       apply_with_weight="true"
       only_selected="false" />
    <inkscape:path-effect
       effect="bspline"
       id="path-effect907"
       is_visible="true"
       weight="33.333333"
       steps="2"
       helper_size="0"
       apply_no_weight="true"
       apply_with_weight="true"
       only_selected="false" />
    <inkscape:path-effect
       effect="bspline"
       id="path-effect841"
       is_visible="true"
       weight="33.333333"
       steps="2"
       helper_size="0"
       apply_no_weight="true"
       apply_with_weight="true"
       only_selected="false" />
    <inkscape:path-effect
       effect="bspline"
       id="path-effect837"
       is_visible="true"
       weight="33.333333"
       steps="2"
       helper_size="0"
       apply_no_weight="true"
       apply_with_weight="true"
       only_selected="false" />
    <inkscape:path-effect
       effect="bspline"
       id="path-effect833"
       is_visible="true"
       weight="33.333333"
       steps="2"
       helper_size="0"
       apply_no_weight="true"
       apply_with_weight="true"
       only_selected="false" />
    <inkscape:path-effect
       effect="bspline"
       id="path-effect823-5"
       is_visible="true"
       weight="33.333333"
       steps="2"
       helper_size="0"
       apply_no_weight="true"
       apply_with_weight="true"
       only_selected="false" />
    <inkscape:path-effect
       effect="bspline"
       id="path-effect827-6"
       is_visible="true"
       weight="33.333333"
       steps="2"
       helper_size="0"
       apply_no_weight="true"
       apply_with_weight="true"
       only_selected="false" />
    <inkscape:path-effect
       effect="bspline"
       id="path-effect3208-2"
       is_visible="true"
       weight="33.333333"
       steps="2"
       helper_size="0"
       apply_no_weight="true"
       apply_with_weight="true"
       only_selected="false" />
    <inkscape:path-effect
       effect="bspline"
       id="path-effect3208-2-1"
       is_visible="true"
       weight="33.333333"
       steps="2"
       helper_size="0"
       apply_no_weight="true"
       apply_with_weight="true"
       only_selected="false" />
    <inkscape:path-effect
       effect="bspline"
       id="path-effect3208-2-1-7"
       is_visible="true"
       weight="33.333333"
       steps="2"
       helper_size="0"
       apply_no_weight="true"
       apply_with_weight="true"
       only_selected="false" />
    <inkscape:path-effect
       effect="bspline"
       id="path-effect3208-2-1-7-9"
       is_visible="true"
       weight="33.333333"
       steps="2"
       helper_size="0"
       apply_no_weight="true"
       apply_with_weight="true"
       only_selected="false" />
    <inkscape:path-effect
       effect="bspline"
       id="path-effect3208-2-1-7-9-6"
       is_visible="true"
       weight="33.333333"
       steps="2"
       helper_size="0"
       apply_no_weight="true"
       apply_with_weight="true"
       only_selected="false" />
    <inkscape:path-effect
       effect="bspline"
       id="path-effect3208-6"
       is_visible="true"
       weight="33.333333"
       steps="2"
       helper_size="0"
       apply_no_weight="true"
       apply_with_weight="true"
       only_selected="false" />
    <inkscape:path-effect
       effect="bspline"
       id="path-effect3208-61"
       is_visible="true"
       weight="33.333333"
       steps="2"
       helper_size="0"
       apply_no_weight="true"
       apply_with_weight="true"
       only_selected="false" />
    <inkscape:path-effect
       effect="bspline"
       id="path-effect3208-61-5"
       is_visible="true"
       weight="33.333333"
       steps="2"
       helper_size="0"
       apply_no_weight="true"
       apply_with_weight="true"
       only_selected="false" />
    <inkscape:path-effect
       effect="bspline"
       id="path-effect3208-2-1-7-9-0"
       is_visible="true"
       weight="33.333333"
       steps="2"
       helper_size="0"
       apply_no_weight="true"
       apply_with_weight="true"
       only_selected="false" />
    <inkscape:path-effect
       effect="bspline"
       id="path-effect3208-2-1-9"
       is_visible="true"
       weight="33.333333"
       steps="2"
       helper_size="0"
       apply_no_weight="true"
       apply_with_weight="true"
       only_selected="false" />
    <inkscape:path-effect
       effect="bspline"
       id="path-effect3208-2-6"
       is_visible="true"
       weight="33.333333"
       steps="2"
       helper_size="0"
       apply_no_weight="true"
       apply_with_weight="true"
       only_selected="false" />
    <inkscape:path-effect
       effect="bspline"
       id="path-effect3208-3"
       is_visible="true"
       weight="33.333333"
       steps="2"
       helper_size="0"
       apply_no_weight="true"
       apply_with_weight="true"
       only_selected="false" />
    <inkscape:path-effect
       effect="bspline"
       id="path-effect827-6-8"
       is_visible="true"
       weight="33.333333"
       steps="2"
       helper_size="0"
       apply_no_weight="true"
       apply_with_weight="true"
       only_selected="false" />
    <inkscape:path-effect
       effect="bspline"
       id="path-effect823-5-5"
       is_visible="true"
       weight="33.333333"
       steps="2"
       helper_size="0"
       apply_no_weight="true"
       apply_with_weight="true"
       only_selected="false" />
    <linearGradient
       inkscape:collect="always"
       id="linearGradient3382">
      <stop
         style="stop-color:#000000;stop-opacity:1;"
         offset="0"
         id="stop3378" />
      <stop
         style="stop-color:#000000;stop-opacity:0;"
         offset="1"
         id="stop3380" />
    </linearGradient>
    <inkscape:path-effect
       effect="bspline"
       id="path-effect3163-6"
       is_visible="true"
       weight="33.333333"
       steps="2"
       helper_size="0"
       apply_no_weight="true"
       apply_with_weight="true"
       only_selected="false" />
    <inkscape:path-effect
       effect="bspline"
       id="path-effect3208-2-1-7-9-0-9"
       is_visible="true"
       weight="33.333333"
       steps="2"
       helper_size="0"
       apply_no_weight="true"
       apply_with_weight="true"
       only_selected="false" />
    <inkscape:path-effect
       effect="bspline"
       id="path-effect3208-2-1-7-9-0-9-1"
       is_visible="true"
       weight="33.333333"
       steps="2"
       helper_size="0"
       apply_no_weight="true"
       apply_with_weight="true"
       only_selected="false" />
    <inkscape:path-effect
       effect="bspline"
       id="path-effect3208-61-5-6"
       is_visible="true"
       weight="33.333333"
       steps="2"
       helper_size="0"
       apply_no_weight="true"
       apply_with_weight="true"
       only_selected="false" />
    <inkscape:path-effect
       effect="bspline"
       id="path-effect3208-2-1-7-9-0-1"
       is_visible="true"
       weight="33.333333"
       steps="2"
       helper_size="0"
       apply_no_weight="true"
       apply_with_weight="true"
       only_selected="false" />
    <inkscape:path-effect
       effect="bspline"
       id="path-effect3208-2-1-9-8"
       is_visible="true"
       weight="33.333333"
       steps="2"
       helper_size="0"
       apply_no_weight="true"
       apply_with_weight="true"
       only_selected="false" />
    <inkscape:path-effect
       effect="bspline"
       id="path-effect3208-2-6-7"
       is_visible="true"
       weight="33.333333"
       steps="2"
       helper_size="0"
       apply_no_weight="true"
       apply_with_weight="true"
       only_selected="false" />
    <inkscape:path-effect
       effect="bspline"
       id="path-effect3208-3-9"
       is_visible="true"
       weight="33.333333"
       steps="2"
       helper_size="0"
       apply_no_weight="true"
       apply_with_weight="true"
       only_selected="false" />
    <inkscape:path-effect
       effect="bspline"
       id="path-effect827-6-8-2"
       is_visible="true"
       weight="33.333333"
       steps="2"
       helper_size="0"
       apply_no_weight="true"
       apply_with_weight="true"
       only_selected="false" />
    <inkscape:path-effect
       effect="bspline"
       id="path-effect823-5-5-0"
       is_visible="true"
       weight="33.333333"
       steps="2"
       helper_size="0"
       apply_no_weight="true"
       apply_with_weight="true"
       only_selected="false" />
    <inkscape:path-effect
       effect="bspline"
       id="path-effect3163-6-7"
       is_visible="true"
       weight="33.333333"
       steps="2"
       helper_size="0"
       apply_no_weight="true"
       apply_with_weight="true"
       only_selected="false" />
    <linearGradient
       inkscape:collect="always"
       xlink:href="#linearGradient3382"
       id="linearGradient1001"
       gradientUnits="userSpaceOnUse"
       x1="100.80896"
       y1="174.17297"
       x2="256.61456"
       y2="174.17297" />
    <inkscape:path-effect
       effect="bspline"
       id="path-effect3208-61-5-6-6"
       is_visible="true"
       weight="33.333333"
       steps="2"
       helper_size="0"
       apply_no_weight="true"
       apply_with_weight="true"
       only_selected="false" />
    <inkscape:path-effect
       effect="bspline"
       id="path-effect3208-2-1-7-9-0-1-1"
       is_visible="true"
       weight="33.333333"
       steps="2"
       helper_size="0"
       apply_no_weight="true"
       apply_with_weight="true"
       only_selected="false" />
    <inkscape:path-effect
       effect="bspline"
       id="path-effect3208-2-1-9-8-5"
       is_visible="true"
       weight="33.333333"
       steps="2"
       helper_size="0"
       apply_no_weight="true"
       apply_with_weight="true"
       only_selected="false" />
    <inkscape:path-effect
       effect="bspline"
       id="path-effect3208-2-6-7-5"
       is_visible="true"
       weight="33.333333"
       steps="2"
       helper_size="0"
       apply_no_weight="true"
       apply_with_weight="true"
       only_selected="false" />
    <inkscape:path-effect
       effect="bspline"
       id="path-effect3208-3-9-4"
       is_visible="true"
       weight="33.333333"
       steps="2"
       helper_size="0"
       apply_no_weight="true"
       apply_with_weight="true"
       only_selected="false" />
    <inkscape:path-effect
       effect="bspline"
       id="path-effect827-6-8-2-7"
       is_visible="true"
       weight="33.333333"
       steps="2"
       helper_size="0"
       apply_no_weight="true"
       apply_with_weight="true"
       only_selected="false" />
    <inkscape:path-effect
       effect="bspline"
       id="path-effect823-5-5-0-6"
       is_visible="true"
       weight="33.333333"
       steps="2"
       helper_size="0"
       apply_no_weight="true"
       apply_with_weight="true"
       only_selected="false" />
    <inkscape:path-effect
       effect="bspline"
       id="path-effect3163-6-7-3"
       is_visible="true"
       weight="33.333333"
       steps="2"
       helper_size="0"
       apply_no_weight="true"
       apply_with_weight="true"
       only_selected="false" />
    <linearGradient
       inkscape:collect="always"
       xlink:href="#linearGradient919"
       id="linearGradient921"
       x1="96.302185"
       y1="173.94965"
       x2="260.93122"
       y2="173.94965"
       gradientUnits="userSpaceOnUse" />
  </defs>
  <sodipodi:namedview
     id="base"
     pagecolor="#ffffff"
     bordercolor="#666666"
     borderopacity="1.0"
     inkscape:pageopacity="0.0"
     inkscape:pageshadow="2"
     inkscape:zoom="0.98994949"
     inkscape:cx="560.33217"
     inkscape:cy="-26.531992"
     inkscape:document-units="mm"
     inkscape:current-layer="layer1"
     showgrid="true"
     showguides="false"
     inkscape:window-width="1920"
     inkscape:window-height="1056"
     inkscape:window-x="0"
     inkscape:window-y="24"
     inkscape:window-maximized="1">
    <inkscape:grid
       type="xygrid"
       id="grid815" />
  </sodipodi:namedview>
  <metadata
     id="metadata5">
    <rdf:RDF>
      <cc:Work
         rdf:about="">
        <dc:format>image/svg+xml</dc:format>
        <dc:type
           rdf:resource="http://purl.org/dc/dcmitype/StillImage" />
        <dc:title />
      </cc:Work>
    </rdf:RDF>
  </metadata>
  <g
     inkscape:groupmode="layer"
     id="layer2"
     inkscape:label="レイヤー 2">
    <path
       sodipodi:type="star"
       style="opacity:0.80201338;fill:#ffffff;fill-opacity:1;fill-rule:evenodd;stroke:none;stroke-width:2.5921874;stroke-linecap:round;stroke-miterlimit:0;stroke-dasharray:2.59218748, 2.59218748;stroke-dashoffset:0;stroke-opacity:1;paint-order:markers fill stroke"
       id="path890-5"
       sodipodi:sides="4"
       sodipodi:cx="104.77512"
       sodipodi:cy="117.87706"
       sodipodi:r1="147.80003"
       sodipodi:r2="104.51042"
       sodipodi:arg1="0.78539816"
       sodipodi:arg2="1.5707963"
       inkscape:flatsided="true"
       inkscape:rounded="0"
       inkscape:randomized="0"
       d="m 209.28553,222.38747 -209.02081205,0 -7.1e-7,-209.020816 209.02081276,0 z"
       inkscape:export-xdpi="131.24051"
       inkscape:export-ydpi="131.24051" />
    <path
       style="fill:url(#linearGradient1001);fill-opacity:1;stroke:none;stroke-width:0.26458332px;stroke-linecap:butt;stroke-linejoin:miter;stroke-opacity:1"
       d="m 118.04855,181.37701 c 0.22049,0 -5.07069,1.3228 -9.75577,-0.52264 -4.68507,-1.84543 -8.762009,-6.85849 -6.77746,-10.82728 1.98454,-3.96879 9.82345,-6.81751 17.34236,-6.05544 7.51891,0.76206 13.9632,5.05826 21.81251,10.21763 7.84931,5.15938 16.93329,11.06837 27.20813,12.69992 10.27484,1.63155 21.74006,-1.01427 30.42718,-4.85081 8.68713,-3.83654 14.59633,-8.86377 23.85123,-10.21214 9.2549,-1.34837 21.85644,0.98165 34.45783,3.31164 -0.87152,-3.47652 -1.74309,-6.95323 -7.38219,-9.66151 -5.63911,-2.70829 -16.04574,-4.6485 -25.74739,-2.00272 -9.70165,2.64578 -18.6969,9.87726 -27.73712,14.06673 -9.04022,4.18947 -18.12425,5.336 -27.0758,3.92498 -8.95154,-1.41102 -17.6027,-5.30404 -25.69193,-9.57335 -8.08922,-4.2693 -15.00993,-8.59475 -21.18343,-10.35869 -6.17351,-1.76393 -11.22088,-0.9227 -15.14217,0.23055 -3.92129,1.15326 -6.02437,2.41511 -7.788358,4.84039 -1.763984,2.42528 -3.086902,5.95305 -1.764013,9.04004 1.322889,3.08699 5.291351,5.73263 10.142521,6.39408 4.85117,0.66145 10.58339,-0.66137 10.80387,-0.66138 z"
       id="path3161-1-9"
       inkscape:connector-curvature="0"
       inkscape:path-effect="#path-effect3163-6-7"
       inkscape:original-d="m 123.5604,180.05417 c -5.29141,1.32265 -10.58259,2.64545 -15.875,3.96875 -4.0774,-5.01422 -8.154341,-10.02727 -12.231907,-15.04051 8.046317,-2.92426 15.885227,-5.77298 24.138157,-8.77199 6.78514,4.52299 13.22943,8.81918 19.84375,13.22917 9.0843,5.90876 18.16828,11.81775 27.2521,17.72708 11.46561,-2.64612 22.93083,-5.29194 34.39583,-7.9375 5.90928,-5.02734 11.81848,-10.05457 17.72707,-15.08125 12.60129,2.32966 37.80416,6.98997 37.80416,6.98997 0,0 -1.74278,-6.95331 -2.61456,-10.42956 -10.40668,-1.94054 -20.81331,-3.88075 -31.22085,-5.82083 -8.99585,7.23191 -17.9911,14.46339 -26.98748,21.69583 -9.08406,1.1463 -18.16809,2.29283 -27.2521,3.43959 -8.81891,-3.96889 -17.47007,-7.86191 -26.45834,-11.90625 -7.19013,-4.49426 -14.11084,-8.81971 -21.16666,-13.22917 -5.29141,0.88169 -10.33879,1.72292 -15.875,2.64584 -2.30638,1.38372 -4.40946,2.64557 -6.614586,3.96875 -1.322652,3.52751 -2.645567,7.05529 -3.96875,10.58333 3.969018,2.64557 7.937476,5.29121 11.906246,7.9375 5.73332,-1.32328 11.46554,-2.6461 17.19792,-3.96875 z"
       sodipodi:nodetypes="cccccccccccccccccccc"
       transform="translate(-76.729146,21.431245)"
       inkscape:export-xdpi="131.24051"
       inkscape:export-ydpi="131.24051" />
    <path
       transform="translate(-82.020816,22.754155)"
       style="fill:#000000;fill-opacity:0.81097562;stroke:none;stroke-width:0.26458332px;stroke-linecap:butt;stroke-linejoin:miter;stroke-opacity:1"
       d="m 138.33005,94.950114 c 2.767,-10.453033 6.30906,-21.964709 10.71867,-32.54768 4.40961,-10.582971 10.60087,-21.933626 13.85994,-27.625695 3.25907,-5.692069 6.25557,-10.388254 10.37528,-15.357073 4.11971,-4.968819 9.79762,-10.8922945 15.47579,-16.8160373 -2.06574,9.0557343 -4.09602,17.9559943 -9.18324,26.1496993 -5.08722,8.193706 -12.88842,15.128106 -18.84184,24.168336 -5.95343,9.040229 -9.92192,20.063805 -13.44981,30.647449 -3.52789,10.583644 -7.23192,22.754037 -9.87782,33.513957 -2.6459,10.75993 -6.86169,30.78492 -9.52062,41.86389 -2.65893,11.07897 -4.41418,16.3447 -6.17807,21.63637 -0.70556,-6.35 -1.40677,-12.66087 0.235,-22.06746 1.64177,-9.40659 5.55892,-21.59327 8.57792,-32.60379 3.01899,-11.01052 5.04181,-20.50893 7.8088,-30.961966 z"
       id="path821-1-2"
       inkscape:connector-curvature="0"
       inkscape:path-effect="#path-effect823-5-5-0"
       inkscape:original-d="m 137.58333,95.916667 c 3.51389,-11.419534 7.05594,-22.931212 10.58334,-34.395834 5.29175,-9.701319 11.48301,-21.051977 15.875,-29.104166 2.12612,-3.331957 5.12263,-8.028139 7.68355,-12.04181 5.67843,-5.924007 17.03451,-17.7712283 17.03451,-17.7712283 0,0 -4.09583,17.9560373 -6.19723,27.1672043 -8.07324,7.176186 -15.87444,14.110586 -23.8125,21.166667 -3.96863,11.024448 -7.93712,22.048023 -11.90625,33.072917 -3.08663,10.142392 -6.79066,22.312783 -9.26042,30.427083 -2.82201,13.40554 -7.03779,33.43053 -10.58333,50.27083 -1.77237,5.31765 -5.29167,15.875 -5.29167,15.875 0,0 -1.40648,-12.6609 -2.11668,-19.04999 3.99362,-12.42401 7.91076,-24.61069 11.90625,-37.04166 2.04255,-9.59008 4.06536,-19.08849 6.08543,-28.575013 z"
       sodipodi:nodetypes="cccccccccccccc"
       inkscape:export-xdpi="131.24051"
       inkscape:export-ydpi="131.24051" />
    <path
       transform="translate(-82.020816,22.754155)"
       style="fill:#000000;fill-opacity:0.81097562;stroke:none;stroke-width:0.26458332px;stroke-linecap:butt;stroke-linejoin:miter;stroke-opacity:1"
       d="m 195.79167,62.84375 c 0,-1.763889 0,-3.880905 -0.17639,-5.821045 -0.1764,-1.94014 -0.70556,-5.644268 0.3118,-9.005897 1.01737,-3.361628 3.49236,-6.997066 5.9677,-10.633028 -2.47534,0.990129 -4.94994,1.979961 -6.18799,1.592946 -1.23804,-0.387015 -1.23804,-2.150073 -0.35574,-4.576171 0.8823,-2.426098 2.64566,-5.511977 3.748,-6.834739 1.10234,-1.322763 1.54331,-0.88179 0.22098,-0.661303 -1.32232,0.220488 -4.40958,0.220487 -6.17387,-2.866901 -1.7643,-3.087388 -2.20519,-9.259834 -2.64616,-15.4334453 -1.64465,6.4672953 -3.28872,12.9323393 -5.71471,17.7845143 -2.42598,4.852174 -5.63091,8.085137 -10.1005,13.230211 -4.46958,5.145074 -10.20167,12.199955 -13.95015,18.153326 -3.74849,5.953371 -5.5123,10.803847 -7.71717,16.977463 -2.20486,6.173616 -4.74709,13.376599 -7.0383,20.479309 -2.2912,7.10271 -3.98593,13.03426 -5.74991,19.2082 -1.76398,6.17393 -3.52769,12.3469 -4.8559,17.83371 -1.32821,5.4868 -2.22059,10.28631 -3.11296,15.08575 2.58797,-0.97999 5.17625,-1.9601 7.822,-1.96001 2.64575,9e-5 5.34945,0.98008 8.31438,0.78533 2.96493,-0.19476 6.19092,-1.56406 8.40086,-5.28679 2.20994,-3.72272 3.4041,-9.79869 6.20605,-14.60044 2.80195,-4.80176 7.21159,-8.32946 11.62131,-11.85724 -1.76389,0 -3.5272,0 -3.9683,-0.88226 -0.44111,-0.88226 0.44068,-2.64583 0.88158,-3.52762 0.44089,-0.88179 3.08672,-3.52762 3.08672,-3.52762 1.76389,-1.32292 3.52808,-2.64606 5.38214,-5.72577 1.85407,-3.079719 3.79835,-7.915815 5.74276,-12.752232 -1.71055,-1.23708 -3.42105,-2.474126 -3.51123,-2.922232 -0.0902,-0.448106 1.43983,-0.107248 2.64577,-1.259915 1.20594,-1.152668 2.08788,-3.798506 1.91772,-6.135534 -0.17016,-2.337029 -1.39228,-4.365499 -0.0692,-6.790923 1.32309,-2.425424 5.19074,-5.247422 9.0587,-8.069644 z"
       id="path825-5-2"
       inkscape:connector-curvature="0"
       inkscape:path-effect="#path-effect827-6-8-2"
       inkscape:original-d="m 195.79167,62.84375 c 0,0 2.7e-4,-3.880905 0,-5.291667 -0.3525,-2.469559 -0.88166,-6.173688 -1.32292,-9.260416 2.47576,-3.636447 7.42603,-10.907887 7.42603,-10.907887 0,0 -4.95,1.979823 -7.42603,2.970387 2.6e-4,-1.764456 2.6e-4,-3.527514 0,-5.291667 1.76468,-3.087996 3.52804,-6.173875 5.29167,-9.260417 0.44123,0.440708 0.8822,0.88168 1.32291,1.322918 -3.08562,-2.65e-4 -6.17288,-2.65e-4 -9.26041,-1e-6 C 191.38214,20.950204 190.5,8.6041667 190.5,8.6041667 c 0,0 -3.28854,12.9323853 -4.93394,19.4018863 -3.20675,3.234804 -6.41168,6.467766 -9.61816,9.702292 C 170.21524,44.76399 164.48315,51.81887 158.75,58.875 c -1.7637,4.850644 -3.52751,9.70112 -5.29167,14.552083 -2.64557,7.496268 -5.1878,14.699251 -7.9375,22.489584 -1.83269,6.415083 -3.52742,12.346633 -5.29166,18.520833 -1.76372,6.17367 -3.52743,12.34664 -5.29167,18.52083 -0.89215,4.79941 -2.6771,14.39832 -2.6771,14.39832 0,0 5.1762,-1.96024 7.7639,-2.93996 2.70397,0.97972 5.40767,1.95971 8.1111,2.93996 3.22625,-1.36957 6.45224,-2.73887 9.67797,-4.10791 1.19442,-6.07624 2.38857,-12.15221 3.58246,-18.22791 4.40979,-3.52788 13.22917,-10.58333 13.22917,-10.58333 0,0 -3.5272,-2.6e-4 -5.29167,0 0.88237,-1.76447 1.76416,-3.52804 2.64584,-5.29167 L 174.625,106.5 c 0,0 3.52805,-2.6461 5.29167,-3.96875 1.94468,-4.836682 5.83323,-14.509252 5.83323,-14.509252 0,0 -3.42083,-2.474425 -5.13164,-3.71124 1.53029,0.340594 3.06031,0.681452 4.59007,1.022575 0.88221,-2.646096 1.76416,-5.291933 2.64583,-7.937499 -1.22185,-2.028735 -2.44397,-4.057205 -3.66636,-6.085417 3.86823,-2.822493 11.60387,-8.466667 11.60387,-8.466667 z"
       sodipodi:nodetypes="ccccccccccscccccccscccccccccsccsc"
       inkscape:export-xdpi="131.24051"
       inkscape:export-ydpi="131.24051" />
    <path
       style="fill:#ffffff;fill-opacity:1;stroke:none;stroke-width:0.26458332px;stroke-linecap:butt;stroke-linejoin:miter;stroke-opacity:1"
       d="m 162.09469,57.966367 c 6.51075,-3.091004 13.02181,-6.182155 19.04516,-9.803431 6.02334,-3.621275 11.55894,-7.77248 17.09487,-11.92393 -4.30238,3.67223 -8.6041,7.343888 -12.47656,10.200345 -3.87247,2.856457 -7.31383,4.896259 -11.18626,6.68154 -3.87243,1.785281 -8.17483,3.31538 -12.47721,4.845476 z"
       id="path3206-98-8"
       inkscape:connector-curvature="0"
       inkscape:path-effect="#path-effect3208-3-9"
       inkscape:original-d="m 162.09469,57.966367 c 0,0 13.02174,-6.182305 19.53225,-9.273011 5.5362,-4.151766 16.60778,-12.45435 16.60778,-12.45435 0,0 -8.60414,7.343838 -12.90715,11.01669 -3.44195,2.039998 -6.88331,4.0798 -10.32573,6.120384 -4.30244,1.529902 -12.90715,4.590287 -12.90715,4.590287 z"
       transform="matrix(1.0249483,0,0,0.86459724,-81.472006,27.542855)"
       sodipodi:nodetypes="cccccc"
       inkscape:export-xdpi="131.24051"
       inkscape:export-ydpi="131.24051" />
    <path
       style="fill:#ffffff;fill-opacity:1;stroke:none;stroke-width:0.26458332px;stroke-linecap:butt;stroke-linejoin:miter;stroke-opacity:1"
       d="m 163.06271,60.101896 c 4.5636,-2.90065 9.12747,-5.801475 13.86207,-9.497722 4.7346,-3.696248 9.63978,-8.187623 14.54531,-12.67932 -3.25215,3.726718 -6.50392,7.452994 -9.31593,10.505378 -2.81201,3.052383 -5.1839,5.430402 -8.2921,7.263152 -3.10821,1.832749 -6.9541,3.120739 -10.79935,4.408512 z"
       id="path3206-9-4-9"
       inkscape:connector-curvature="0"
       inkscape:path-effect="#path-effect3208-2-6-7"
       inkscape:original-d="m 163.06271,60.101896 c 0,0 9.12734,-5.801676 13.69079,-8.70195 4.90577,-4.492142 14.71659,-13.475092 14.71659,-13.475092 0,0 -6.50401,7.452917 -9.75646,11.180153 -2.37158,2.377507 -4.74347,4.755525 -7.11518,7.13357 -3.8447,1.287253 -11.53574,3.863319 -11.53574,3.863319 z"
       transform="matrix(1.3505144,0,0,0.6561773,-154.07272,85.847907)"
       sodipodi:nodetypes="cccccc"
       inkscape:export-xdpi="131.24051"
       inkscape:export-ydpi="131.24051" />
    <path
       style="fill:#ffffff;fill-opacity:1;stroke:none;stroke-width:0.26458332px;stroke-linecap:butt;stroke-linejoin:miter;stroke-opacity:1"
       d="m 166.51078,65.396694 c 3.87125,-2.538786 7.74281,-5.077782 12.66676,-10.304815 4.92396,-5.227032 10.90026,-13.141632 16.8769,-21.056677 -2.03749,3.733512 -4.07469,7.466479 -7.97997,12.69359 -3.90528,5.227111 -9.67856,11.947883 -13.58343,15.307895 -3.90487,3.360012 -5.94277,3.360009 -7.98026,3.360007 z"
       id="path3206-9-2-8-7"
       inkscape:connector-curvature="0"
       inkscape:path-effect="#path-effect3208-2-1-9-8"
       inkscape:original-d="m 166.51078,65.396694 c 0,0 7.74267,-5.078 11.61374,-7.616358 5.97689,-7.915554 17.92992,-23.745134 17.92992,-23.745134 0,0 -4.07472,7.466462 -6.11248,11.200535 -5.77287,6.720078 -11.54616,13.440846 -17.3187,20.160964 -2.03709,-4.51e-4 -6.11248,-7e-6 -6.11248,-7e-6 z"
       transform="matrix(1.298572,0,0,0.59055958,-142.14292,60.206435)"
       sodipodi:nodetypes="cccccc"
       inkscape:export-xdpi="131.24051"
       inkscape:export-ydpi="131.24051" />
    <path
       style="fill:#ffffff;fill-opacity:1;stroke:none;stroke-width:0.26458332px;stroke-linecap:butt;stroke-linejoin:miter;stroke-opacity:1"
       d="m 165.25693,56.436279 c 4.54518,-1.96373 9.09067,-3.927594 14.02768,-7.287827 4.937,-3.360233 10.26553,-8.116545 15.59436,-12.873136 -3.9496,4.276566 -7.89877,8.552679 -11.1902,11.668606 -3.29143,3.115927 -5.92466,5.071049 -8.88661,6.292907 -2.96195,1.221858 -6.25388,1.710698 -9.54523,2.19945 z"
       id="path3206-9-2-0-3-1-3"
       inkscape:connector-curvature="0"
       inkscape:path-effect="#path-effect3208-2-1-7-9-0-1"
       inkscape:original-d="m 165.25693,56.436279 c 0,0 9.09057,-3.927825 13.63554,-5.891191 5.32906,-4.756964 15.9865,-14.269772 15.9865,-14.269772 0,0 -7.89884,8.552618 -11.84879,12.829699 -2.63294,1.954704 -5.26617,3.909827 -7.89921,5.865007 -3.29081,0.488339 -9.87404,1.466257 -9.87404,1.466257 z"
       transform="matrix(1.2058168,0,0,0.72179505,-142.38419,111.00833)"
       sodipodi:nodetypes="cacccc"
       inkscape:export-xdpi="131.24051"
       inkscape:export-ydpi="131.24051" />
    <path
       style="fill:#ffffff;fill-opacity:1;stroke:none;stroke-width:0.26458332px;stroke-linecap:butt;stroke-linejoin:miter;stroke-opacity:1"
       d="m 172.42043,56.436267 c 3.18376,-1.734105 6.36784,-3.46838 9.37951,-5.508551 3.01167,-2.040171 5.85093,-4.386065 8.69051,-6.732216 -1.89305,1.938126 -3.78566,3.875793 -5.63584,5.610073 -1.85018,1.734279 -3.65689,3.264127 -5.72218,4.335358 -2.06529,1.071232 -4.38871,1.683302 -6.712,2.295336 z"
       id="path3206-8-0-6"
       inkscape:connector-curvature="0"
       inkscape:path-effect="#path-effect3208-61-5-6"
       inkscape:original-d="m 172.42043,56.436267 c 0,0 6.36777,-3.468509 9.55129,-5.202314 2.83984,-2.346465 8.51873,-7.038453 8.51873,-7.038453 0,0 -3.78568,3.875772 -5.67916,5.814377 -1.8069,1.529926 -3.61361,3.05977 -5.421,4.590287 -2.32321,0.611775 -6.96986,1.836103 -6.96986,1.836103 z"
       transform="matrix(1.0249483,0,0,0.86459724,-80.149096,12.990764)"
       sodipodi:nodetypes="cccccc"
       inkscape:export-xdpi="131.24051"
       inkscape:export-ydpi="131.24051" />
    <path
       sodipodi:type="star"
       style="opacity:0.80201338;fill:#ffffff;fill-opacity:0;fill-rule:evenodd;stroke:none;stroke-width:0.60003072;stroke-linecap:round;stroke-miterlimit:0;stroke-dasharray:0.60003075, 0.60003074999999995;stroke-dashoffset:0;stroke-opacity:1;paint-order:markers fill stroke"
       id="path890-5-7"
       sodipodi:sides="4"
       sodipodi:cx="116.58815"
       sodipodi:cy="271.3624"
       sodipodi:r1="34.212246"
       sodipodi:r2="24.191717"
       sodipodi:arg1="0.78539816"
       sodipodi:arg2="1.5707963"
       inkscape:flatsided="true"
       inkscape:rounded="0"
       inkscape:randomized="0"
       d="m 140.77986,295.55411 -48.383421,0 0,-48.38342 48.383421,0 z"
       inkscape:export-xdpi="131.24051"
       inkscape:export-ydpi="131.24051"
       transform="matrix(2.4104205,0,0,1,-130.31784,0)" />
    <path
       style="fill:url(#linearGradient921);fill-opacity:1;stroke:none;stroke-width:0.26458332px;stroke-linecap:butt;stroke-linejoin:miter;stroke-opacity:1"
       d="m 103.34577,181.71423 c 0.26679,-0.0398 -1.56066,-1.56362 -3.22535,-3.93349 -1.664682,-2.36987 -3.16592,-5.58435 0.10676,-8.65339 3.27268,-3.06905 11.11159,-5.91777 18.6305,-5.1557 7.51891,0.76206 13.9632,5.05826 21.81251,10.21763 7.84931,5.15938 16.93329,11.06837 27.20813,12.69992 10.27484,1.63155 21.74006,-1.01427 30.42718,-4.85081 8.68713,-3.83654 14.59633,-8.86377 24.50384,-9.63071 9.90751,-0.76693 23.81478,2.72611 37.72164,6.21904 0.65274,-3.81008 1.30561,-7.62091 -4.98709,-10.91054 -6.2927,-3.28964 -19.52763,-6.05893 -30.6441,-3.82784 -11.11646,2.2311 -20.11171,9.46258 -29.15193,13.65205 -9.04022,4.18947 -18.12425,5.336 -27.0758,3.92498 -8.95154,-1.41102 -17.6027,-5.30404 -25.69193,-9.57335 -8.08922,-4.2693 -15.00993,-8.59475 -21.18343,-10.35869 -6.17351,-1.76393 -11.22088,-0.9227 -15.14217,0.23055 -3.92129,1.15326 -6.02437,2.41511 -7.654623,4.12071 -1.63025,1.70561 -2.685781,3.79412 -2.697621,6.02135 -0.01184,2.22724 1.020997,4.59252 2.718327,6.49806 1.697327,1.90554 4.058377,3.35 4.325157,3.31023 z"
       id="path3161-1-9-4"
       inkscape:connector-curvature="0"
       inkscape:path-effect="#path-effect3163-6-7-3"
       inkscape:original-d="m 105.44061,183.19882 c -1.82733,-1.52522 -3.65478,-3.04907 -5.482996,-4.5721 -1.501116,-3.2162 -3.002356,-6.43068 -4.504121,-9.64431 8.046317,-2.92426 15.885227,-5.77298 24.138157,-8.77199 6.78514,4.52299 13.22943,8.81918 19.84375,13.22917 9.0843,5.90876 18.16828,11.81775 27.2521,17.72708 11.46561,-2.64612 22.93083,-5.29194 34.39583,-7.9375 5.90928,-5.02734 11.81848,-10.05457 17.72707,-15.08125 13.90674,3.49166 41.72058,10.4788 41.72058,10.4788 0,0 1.3058,-7.62088 1.95822,-11.43024 -13.23776,-2.77111 -26.4727,-5.5404 -39.71005,-8.30898 -8.99585,7.23191 -17.9911,14.46339 -26.98748,21.69583 -9.08406,1.1463 -18.16809,2.29283 -27.2521,3.43959 -8.81891,-3.96889 -17.47007,-7.86191 -26.45834,-11.90625 -7.19013,-4.49426 -14.11084,-8.81971 -21.16666,-13.22917 -5.29141,0.88169 -10.33879,1.72292 -15.875,2.64584 -2.30638,1.38372 -4.40946,2.64557 -6.614586,3.96875 -1.055476,2.08803 -2.111008,4.17654 -3.167079,6.26649 1.03329,2.36427 2.066125,4.72955 3.098734,7.09634 2.361921,1.44361 4.722961,2.88808 7.083971,4.3339 z"
       sodipodi:nodetypes="cccccccccccccccccccc"
       transform="matrix(0.67557383,0,0,0.2314766,31.690002,249.03751)"
       inkscape:export-xdpi="131.24051"
       inkscape:export-ydpi="131.24051" />
    <path
       transform="matrix(0.2314766,0,0,0.2314766,73.349246,249.34372)"
       style="fill:#000000;fill-opacity:0.81097562;stroke:none;stroke-width:0.26458332px;stroke-linecap:butt;stroke-linejoin:miter;stroke-opacity:1"
       d="m 138.33005,94.950114 c 2.767,-10.453033 6.30906,-21.964709 10.71867,-32.54768 4.40961,-10.582971 10.60087,-21.933626 13.85994,-27.625695 3.25907,-5.692069 6.25557,-10.388254 10.37528,-15.357073 4.11971,-4.968819 9.79762,-10.8922945 15.47579,-16.8160373 -2.06574,9.0557343 -4.09602,17.9559943 -9.18324,26.1496993 -5.08722,8.193706 -12.88842,15.128106 -18.84184,24.168336 -5.95343,9.040229 -9.92192,20.063805 -13.44981,30.647449 -3.52789,10.583644 -7.23192,22.754037 -9.87782,33.513957 -2.6459,10.75993 -6.86169,30.78492 -9.52062,41.86389 -2.65893,11.07897 -4.41418,16.3447 -6.17807,21.63637 -0.70556,-6.35 -1.40677,-12.66087 0.235,-22.06746 1.64177,-9.40659 5.55892,-21.59327 8.57792,-32.60379 3.01899,-11.01052 5.04181,-20.50893 7.8088,-30.961966 z"
       id="path821-1-2-5"
       inkscape:connector-curvature="0"
       inkscape:path-effect="#path-effect823-5-5-0-6"
       inkscape:original-d="m 137.58333,95.916667 c 3.51389,-11.419534 7.05594,-22.931212 10.58334,-34.395834 5.29175,-9.701319 11.48301,-21.051977 15.875,-29.104166 2.12612,-3.331957 5.12263,-8.028139 7.68355,-12.04181 5.67843,-5.924007 17.03451,-17.7712283 17.03451,-17.7712283 0,0 -4.09583,17.9560373 -6.19723,27.1672043 -8.07324,7.176186 -15.87444,14.110586 -23.8125,21.166667 -3.96863,11.024448 -7.93712,22.048023 -11.90625,33.072917 -3.08663,10.142392 -6.79066,22.312783 -9.26042,30.427083 -2.82201,13.40554 -7.03779,33.43053 -10.58333,50.27083 -1.77237,5.31765 -5.29167,15.875 -5.29167,15.875 0,0 -1.40648,-12.6609 -2.11668,-19.04999 3.99362,-12.42401 7.91076,-24.61069 11.90625,-37.04166 2.04255,-9.59008 4.06536,-19.08849 6.08543,-28.575013 z"
       sodipodi:nodetypes="cccccccccccccc"
       inkscape:export-xdpi="131.24051"
       inkscape:export-ydpi="131.24051" />
    <path
       transform="matrix(0.2314766,0,0,0.2314766,73.349246,249.34372)"
       style="fill:#000000;fill-opacity:0.81097562;stroke:none;stroke-width:0.26458332px;stroke-linecap:butt;stroke-linejoin:miter;stroke-opacity:1"
       d="m 195.79167,62.84375 c 0,-1.763889 0,-3.880905 -0.17639,-5.821045 -0.1764,-1.94014 -0.70556,-5.644268 0.3118,-9.005897 1.01737,-3.361628 3.49236,-6.997066 5.9677,-10.633028 -2.47534,0.990129 -4.94994,1.979961 -6.18799,1.592946 -1.23804,-0.387015 -1.23804,-2.150073 -0.35574,-4.576171 0.8823,-2.426098 2.64566,-5.511977 3.748,-6.834739 1.10234,-1.322763 1.54331,-0.88179 0.22098,-0.661303 -1.32232,0.220488 -4.40958,0.220487 -6.17387,-2.866901 -1.7643,-3.087388 -2.20519,-9.259834 -2.64616,-15.4334453 -1.64465,6.4672953 -3.28872,12.9323393 -5.71471,17.7845143 -2.42598,4.852174 -5.63091,8.085137 -10.1005,13.230211 -4.46958,5.145074 -10.20167,12.199955 -13.95015,18.153326 -3.74849,5.953371 -5.5123,10.803847 -7.71717,16.977463 -2.20486,6.173616 -4.74709,13.376599 -7.0383,20.479309 -2.2912,7.10271 -3.98593,13.03426 -5.74991,19.2082 -1.76398,6.17393 -3.52769,12.3469 -4.8559,17.83371 -1.32821,5.4868 -2.22059,10.28631 -3.11296,15.08575 2.58797,-0.97999 5.17625,-1.9601 7.822,-1.96001 2.64575,9e-5 5.34945,0.98008 8.31438,0.78533 2.96493,-0.19476 6.19092,-1.56406 8.40086,-5.28679 2.20994,-3.72272 3.4041,-9.79869 6.20605,-14.60044 2.80195,-4.80176 7.21159,-8.32946 11.62131,-11.85724 -1.76389,0 -3.5272,0 -3.9683,-0.88226 -0.44111,-0.88226 0.44068,-2.64583 0.88158,-3.52762 0.44089,-0.88179 3.08672,-3.52762 3.08672,-3.52762 1.76389,-1.32292 3.52808,-2.64606 5.38214,-5.72577 1.85407,-3.079719 3.79835,-7.915815 5.74276,-12.752232 -1.71055,-1.23708 -3.42105,-2.474126 -3.51123,-2.922232 -0.0902,-0.448106 1.43983,-0.107248 2.64577,-1.259915 1.20594,-1.152668 2.08788,-3.798506 1.91772,-6.135534 -0.17016,-2.337029 -1.39228,-4.365499 -0.0692,-6.790923 1.32309,-2.425424 5.19074,-5.247422 9.0587,-8.069644 z"
       id="path825-5-2-2"
       inkscape:connector-curvature="0"
       inkscape:path-effect="#path-effect827-6-8-2-7"
       inkscape:original-d="m 195.79167,62.84375 c 0,0 2.7e-4,-3.880905 0,-5.291667 -0.3525,-2.469559 -0.88166,-6.173688 -1.32292,-9.260416 2.47576,-3.636447 7.42603,-10.907887 7.42603,-10.907887 0,0 -4.95,1.979823 -7.42603,2.970387 2.6e-4,-1.764456 2.6e-4,-3.527514 0,-5.291667 1.76468,-3.087996 3.52804,-6.173875 5.29167,-9.260417 0.44123,0.440708 0.8822,0.88168 1.32291,1.322918 -3.08562,-2.65e-4 -6.17288,-2.65e-4 -9.26041,-1e-6 C 191.38214,20.950204 190.5,8.6041667 190.5,8.6041667 c 0,0 -3.28854,12.9323853 -4.93394,19.4018863 -3.20675,3.234804 -6.41168,6.467766 -9.61816,9.702292 C 170.21524,44.76399 164.48315,51.81887 158.75,58.875 c -1.7637,4.850644 -3.52751,9.70112 -5.29167,14.552083 -2.64557,7.496268 -5.1878,14.699251 -7.9375,22.489584 -1.83269,6.415083 -3.52742,12.346633 -5.29166,18.520833 -1.76372,6.17367 -3.52743,12.34664 -5.29167,18.52083 -0.89215,4.79941 -2.6771,14.39832 -2.6771,14.39832 0,0 5.1762,-1.96024 7.7639,-2.93996 2.70397,0.97972 5.40767,1.95971 8.1111,2.93996 3.22625,-1.36957 6.45224,-2.73887 9.67797,-4.10791 1.19442,-6.07624 2.38857,-12.15221 3.58246,-18.22791 4.40979,-3.52788 13.22917,-10.58333 13.22917,-10.58333 0,0 -3.5272,-2.6e-4 -5.29167,0 0.88237,-1.76447 1.76416,-3.52804 2.64584,-5.29167 L 174.625,106.5 c 0,0 3.52805,-2.6461 5.29167,-3.96875 1.94468,-4.836682 5.83323,-14.509252 5.83323,-14.509252 0,0 -3.42083,-2.474425 -5.13164,-3.71124 1.53029,0.340594 3.06031,0.681452 4.59007,1.022575 0.88221,-2.646096 1.76416,-5.291933 2.64583,-7.937499 -1.22185,-2.028735 -2.44397,-4.057205 -3.66636,-6.085417 3.86823,-2.822493 11.60387,-8.466667 11.60387,-8.466667 z"
       sodipodi:nodetypes="ccccccccccscccccccscccccccccsccsc"
       inkscape:export-xdpi="131.24051"
       inkscape:export-ydpi="131.24051" />
    <path
       style="fill:#ffffff;fill-opacity:1;stroke:none;stroke-width:0.26458332px;stroke-linecap:butt;stroke-linejoin:miter;stroke-opacity:1"
       d="m 162.09469,57.966367 c 6.51075,-3.091004 13.02181,-6.182155 19.04516,-9.803431 6.02334,-3.621275 11.55894,-7.77248 17.09487,-11.92393 -4.30238,3.67223 -8.6041,7.343888 -12.47656,10.200345 -3.87247,2.856457 -7.31383,4.896259 -11.18626,6.68154 -3.87243,1.785281 -8.17483,3.31538 -12.47721,4.845476 z"
       id="path3206-98-8-5"
       inkscape:connector-curvature="0"
       inkscape:path-effect="#path-effect3208-3-9-4"
       inkscape:original-d="m 162.09469,57.966367 c 0,0 13.02174,-6.182305 19.53225,-9.273011 5.5362,-4.151766 16.60778,-12.45435 16.60778,-12.45435 0,0 -8.60414,7.343838 -12.90715,11.01669 -3.44195,2.039998 -6.88331,4.0798 -10.32573,6.120384 -4.30244,1.529902 -12.90715,4.590287 -12.90715,4.590287 z"
       transform="matrix(0.23725155,0,0,0.20013403,73.476283,250.45219)"
       sodipodi:nodetypes="cccccc"
       inkscape:export-xdpi="131.24051"
       inkscape:export-ydpi="131.24051" />
    <path
       style="fill:#ffffff;fill-opacity:1;stroke:none;stroke-width:0.26458332px;stroke-linecap:butt;stroke-linejoin:miter;stroke-opacity:1"
       d="m 163.06271,60.101896 c 4.5636,-2.90065 9.12747,-5.801475 13.86207,-9.497722 4.7346,-3.696248 9.63978,-8.187623 14.54531,-12.67932 -3.25215,3.726718 -6.50392,7.452994 -9.31593,10.505378 -2.81201,3.052383 -5.1839,5.430402 -8.2921,7.263152 -3.10821,1.832749 -6.9541,3.120739 -10.79935,4.408512 z"
       id="path3206-9-4-9-4"
       inkscape:connector-curvature="0"
       inkscape:path-effect="#path-effect3208-2-6-7-5"
       inkscape:original-d="m 163.06271,60.101896 c 0,0 9.12734,-5.801676 13.69079,-8.70195 4.90577,-4.492142 14.71659,-13.475092 14.71659,-13.475092 0,0 -6.50401,7.452917 -9.75646,11.180153 -2.37158,2.377507 -4.74347,4.755525 -7.11518,7.13357 -3.8447,1.287253 -11.53574,3.863319 -11.53574,3.863319 z"
       transform="matrix(0.31261249,0,0,0.15188968,56.670916,263.94845)"
       sodipodi:nodetypes="cccccc"
       inkscape:export-xdpi="131.24051"
       inkscape:export-ydpi="131.24051" />
    <path
       style="fill:#ffffff;fill-opacity:1;stroke:none;stroke-width:0.26458332px;stroke-linecap:butt;stroke-linejoin:miter;stroke-opacity:1"
       d="m 166.51078,65.396694 c 3.87125,-2.538786 7.74281,-5.077782 12.66676,-10.304815 4.92396,-5.227032 10.90026,-13.141632 16.8769,-21.056677 -2.03749,3.733512 -4.07469,7.466479 -7.97997,12.69359 -3.90528,5.227111 -9.67856,11.947883 -13.58343,15.307895 -3.90487,3.360012 -5.94277,3.360009 -7.98026,3.360007 z"
       id="path3206-9-2-8-7-7"
       inkscape:connector-curvature="0"
       inkscape:path-effect="#path-effect3208-2-1-9-8-5"
       inkscape:original-d="m 166.51078,65.396694 c 0,0 7.74267,-5.078 11.61374,-7.616358 5.97689,-7.915554 17.92992,-23.745134 17.92992,-23.745134 0,0 -4.07472,7.466462 -6.11248,11.200535 -5.77287,6.720078 -11.54616,13.440846 -17.3187,20.160964 -2.03709,-4.51e-4 -6.11248,-7e-6 -6.11248,-7e-6 z"
       transform="matrix(0.30058902,0,0,0.13670072,59.432383,258.01305)"
       sodipodi:nodetypes="cccccc"
       inkscape:export-xdpi="131.24051"
       inkscape:export-ydpi="131.24051" />
    <path
       style="fill:#ffffff;fill-opacity:1;stroke:none;stroke-width:0.26458332px;stroke-linecap:butt;stroke-linejoin:miter;stroke-opacity:1"
       d="m 165.25693,56.436279 c 4.54518,-1.96373 9.09067,-3.927594 14.02768,-7.287827 4.937,-3.360233 10.26553,-8.116545 15.59436,-12.873136 -3.9496,4.276566 -7.89877,8.552679 -11.1902,11.668606 -3.29143,3.115927 -5.92466,5.071049 -8.88661,6.292907 -2.96195,1.221858 -6.25388,1.710698 -9.54523,2.19945 z"
       id="path3206-9-2-0-3-1-3-4"
       inkscape:connector-curvature="0"
       inkscape:path-effect="#path-effect3208-2-1-7-9-0-1-1"
       inkscape:original-d="m 165.25693,56.436279 c 0,0 9.09057,-3.927825 13.63554,-5.891191 5.32906,-4.756964 15.9865,-14.269772 15.9865,-14.269772 0,0 -7.89884,8.552618 -11.84879,12.829699 -2.63294,1.954704 -5.26617,3.909827 -7.89921,5.865007 -3.29081,0.488339 -9.87404,1.466257 -9.87404,1.466257 z"
       transform="matrix(0.27911836,0,0,0.16707865,59.376535,269.7725)"
       sodipodi:nodetypes="cacccc"
       inkscape:export-xdpi="131.24051"
       inkscape:export-ydpi="131.24051" />
    <path
       style="fill:#ffffff;fill-opacity:1;stroke:none;stroke-width:0.26458332px;stroke-linecap:butt;stroke-linejoin:miter;stroke-opacity:1"
       d="m 172.42043,56.436267 c 3.18376,-1.734105 6.36784,-3.46838 9.37951,-5.508551 3.01167,-2.040171 5.85093,-4.386065 8.69051,-6.732216 -1.89305,1.938126 -3.78566,3.875793 -5.63584,5.610073 -1.85018,1.734279 -3.65689,3.264127 -5.72218,4.335358 -2.06529,1.071232 -4.38871,1.683302 -6.712,2.295336 z"
       id="path3206-8-0-6-4"
       inkscape:connector-curvature="0"
       inkscape:path-effect="#path-effect3208-61-5-6-6"
       inkscape:original-d="m 172.42043,56.436267 c 0,0 6.36777,-3.468509 9.55129,-5.202314 2.83984,-2.346465 8.51873,-7.038453 8.51873,-7.038453 0,0 -3.78568,3.875772 -5.67916,5.814377 -1.8069,1.529926 -3.61361,3.05977 -5.421,4.590287 -2.32321,0.611775 -6.96986,1.836103 -6.96986,1.836103 z"
       transform="matrix(0.23725155,0,0,0.20013403,73.782505,247.08374)"
       sodipodi:nodetypes="cccccc"
       inkscape:export-xdpi="131.24051"
       inkscape:export-ydpi="131.24051" />
  </g>
  <g
     inkscape:label="レイヤー 1"
     inkscape:groupmode="layer"
     id="layer1">
    <text
       xml:space="preserve"
       style="font-style:normal;font-variant:normal;font-weight:normal;font-stretch:normal;font-size:12.78461933px;line-height:1.25;font-family:HalfbreD;-inkscape-font-specification:'HalfbreD, Normal';font-variant-ligatures:normal;font-variant-caps:normal;font-variant-numeric:normal;font-feature-settings:normal;text-align:start;letter-spacing:0px;word-spacing:0px;writing-mode:lr-tb;text-anchor:start;fill:#000000;fill-opacity:1;stroke:none;stroke-width:0.31961548"
       x="123.31041"
       y="280.9079"
       id="text3462"
       inkscape:export-xdpi="131.24051"
       inkscape:export-ydpi="131.24051"><tspan
         sodipodi:role="line"
         id="tspan3460"
         x="123.31041"
         y="280.9079"
         style="font-style:normal;font-variant:normal;font-weight:normal;font-stretch:normal;font-size:20.45539093px;font-family:HalfbreD;-inkscape-font-specification:'HalfbreD, Normal';font-variant-ligatures:normal;font-variant-caps:normal;font-variant-numeric:normal;font-feature-settings:normal;text-align:start;writing-mode:lr-tb;text-anchor:start;stroke-width:0.31961548">Letters</tspan></text>
  </g>
</svg>
