<?xml version="1.0" encoding="UTF-8" standalone="no"?>
<!-- Created with Inkscape (http://www.inkscape.org/) -->

<svg
   xmlns:dc="http://purl.org/dc/elements/1.1/"
   xmlns:cc="http://creativecommons.org/ns#"
   xmlns:rdf="http://www.w3.org/1999/02/22-rdf-syntax-ns#"
   xmlns:svg="http://www.w3.org/2000/svg"
   xmlns="http://www.w3.org/2000/svg"
   xmlns:sodipodi="http://sodipodi.sourceforge.net/DTD/sodipodi-0.dtd"
   xmlns:inkscape="http://www.inkscape.org/namespaces/inkscape"
   width="210mm"
   height="297mm"
   viewBox="0 0 210 297"
   version="1.1"
   id="svg8"
   inkscape:version="0.92.4 (unknown)"
   sodipodi:docname="feather_01.svg">
  <defs
     id="defs2">
    <inkscape:path-effect
       effect="bspline"
       id="path-effect827"
       is_visible="true"
       weight="33.333333"
       steps="2"
       helper_size="0"
       apply_no_weight="true"
       apply_with_weight="true"
       only_selected="false" />
    <inkscape:path-effect
       effect="bspline"
       id="path-effect823"
       is_visible="true"
       weight="33.333333"
       steps="2"
       helper_size="0"
       apply_no_weight="true"
       apply_with_weight="true"
       only_selected="false" />
    <inkscape:path-effect
       effect="bspline"
       id="path-effect907"
       is_visible="true"
       weight="33.333333"
       steps="2"
       helper_size="0"
       apply_no_weight="true"
       apply_with_weight="true"
       only_selected="false" />
    <inkscape:path-effect
       effect="bspline"
       id="path-effect841"
       is_visible="true"
       weight="33.333333"
       steps="2"
       helper_size="0"
       apply_no_weight="true"
       apply_with_weight="true"
       only_selected="false" />
    <inkscape:path-effect
       effect="bspline"
       id="path-effect837"
       is_visible="true"
       weight="33.333333"
       steps="2"
       helper_size="0"
       apply_no_weight="true"
       apply_with_weight="true"
       only_selected="false" />
    <inkscape:path-effect
       effect="bspline"
       id="path-effect833"
       is_visible="true"
       weight="33.333333"
       steps="2"
       helper_size="0"
       apply_no_weight="true"
       apply_with_weight="true"
       only_selected="false" />
  </defs>
  <sodipodi:namedview
     id="base"
     pagecolor="#ffffff"
     bordercolor="#666666"
     borderopacity="1.0"
     inkscape:pageopacity="0.0"
     inkscape:pageshadow="2"
     inkscape:zoom="0.7"
     inkscape:cx="616.29278"
     inkscape:cy="621.41872"
     inkscape:document-units="mm"
     inkscape:current-layer="layer1"
     showgrid="true"
     showguides="false"
     inkscape:window-width="1920"
     inkscape:window-height="1056"
     inkscape:window-x="0"
     inkscape:window-y="24"
     inkscape:window-maximized="1">
    <inkscape:grid
       type="xygrid"
       id="grid815" />
  </sodipodi:namedview>
  <metadata
     id="metadata5">
    <rdf:RDF>
      <cc:Work
         rdf:about="">
        <dc:format>image/svg+xml</dc:format>
        <dc:type
           rdf:resource="http://purl.org/dc/dcmitype/StillImage" />
        <dc:title />
      </cc:Work>
    </rdf:RDF>
  </metadata>
  <g
     inkscape:label="レイヤー 1"
     inkscape:groupmode="layer"
     id="layer1">
    <path
       style="fill:#000000;fill-opacity:1;stroke:#000000;stroke-width:0.26458332px;stroke-linecap:butt;stroke-linejoin:miter;stroke-opacity:1"
       d="M 18.520833,167.35417 C 23.8125,145.30556 29.10424,123.25663 35.27789,104.7358 41.451539,86.214956 48.507094,71.221903 56.003646,57.55177 63.500197,43.881638 71.4375,31.534722 79.375,19.1875 c 0,1.763889 0,3.527513 -2.645732,8.378188 C 74.083536,32.416364 68.79187,40.353862 62.17726,52.701077 55.562651,65.048293 47.62515,81.805239 42.333447,95.475381 37.041744,109.14552 34.395752,119.72949 32.190985,127.66667 c -2.204767,7.93718 -3.968784,13.22923 -6.173575,19.40265 -2.20479,6.17342 -4.850744,13.22929 -7.496577,20.28485 z"
       id="path831"
       inkscape:connector-curvature="0"
       inkscape:path-effect="#path-effect833"
       inkscape:original-d="m 18.520833,167.35417 c 0,0 10.583597,-44.09749 15.875,-66.14584 C 41.451655,86.21501 48.50721,71.221957 55.5625,56.229167 63.500264,43.881681 79.375,19.1875 79.375,19.1875 c 0,0 2.65e-4,3.527513 0,5.291667 -5.291404,7.937237 -10.583069,15.874735 -15.875,23.8125 -7.937236,16.75668 -15.874736,33.513626 -23.8125,50.270833 -2.645568,10.58307 -5.29156,21.16704 -7.9375,31.75 -1.763624,5.2914 -3.527641,10.58345 -5.291667,15.875 -2.645569,7.05529 -7.9375,21.16667 -7.9375,21.16667 z"
       sodipodi:nodetypes="cccccccccc" />
    <path
       style="fill:#000000;fill-opacity:1;stroke:#000000;stroke-width:0.26458332px;stroke-linecap:butt;stroke-linejoin:miter;stroke-opacity:1"
       d="m 70.114583,62.84375 c 0,0 -9.260416,-2.645833 -9.260416,-2.645833 2.645833,-5.732639 5.291814,-11.465598 8.599125,-17.639204 3.307311,-6.173607 7.275875,-12.78788 11.244625,-19.402463 -0.440972,2.645833 -0.881851,5.291104 -1.102384,7.71671 -0.220533,2.425605 -0.220533,4.63016 0.440925,7.055683 0.661458,2.425523 1.984243,5.071093 3.086743,8.158043 1.1025,3.08695 1.984326,6.614256 2.425354,8.378368 0.441028,1.764113 -4.850638,7.055779 -6.61491,7.276313 -1.764271,0.220534 -5.290735,0.661342 -8.819062,1.102383"
       id="path835"
       inkscape:connector-curvature="0"
       inkscape:path-effect="#path-effect837"
       inkscape:original-d="m 70.114583,62.84375 -9.260416,-2.645833 c 0,0 5.291931,-11.465544 7.9375,-17.197917 3.969014,-6.614847 11.90625,-19.84375 11.90625,-19.84375 0,0 -0.881636,5.29114 -1.322917,7.9375 2.65e-4,2.204815 2.65e-4,4.40937 0,6.614583 1.323234,2.645674 2.646019,5.291244 3.96875,7.9375 0.882262,3.527725 1.764088,7.055031 2.645833,10.583334 l -5.291666,5.291666 c -3.528572,0.44084 -7.055035,0.881648 -10.583334,1.322917"
       sodipodi:nodetypes="cccccccccc" />
    <path
       style="fill:#000000;fill-opacity:1;stroke:#000000;stroke-width:0.26458332px;stroke-linecap:butt;stroke-linejoin:miter;stroke-opacity:1"
       d="m 87.312499,58.875001 c -3.527778,1.763889 -7.055239,3.527619 -10.583201,4.409642 -3.527962,0.882024 -7.055155,0.882024 -9.921755,0.441046 -2.866601,-0.440979 -5.071432,-1.322911 -7.276293,-2.204856 -1.322917,2.645834 -2.645675,5.291349 -4.630202,9.260404 -1.984528,3.969054 -4.630057,9.260112 -6.614498,13.890439 -1.984441,4.630327 -3.307384,8.599157 -4.6303,12.567907 2.204861,1.322916 4.409798,2.645877 7.717052,3.307317 3.307254,0.66143 7.71724,0.66143 11.685973,-1.543575 3.968734,-2.205005 7.496512,-6.614727 9.701279,-11.906396 2.204766,-5.29167 3.086711,-11.465281 3.527662,-14.551938 0.440951,-3.086658 11.024283,-13.66999 11.024283,-13.66999 z"
       id="path839"
       inkscape:connector-curvature="0"
       inkscape:path-effect="#path-effect841"
       inkscape:original-d="m 87.312499,58.875001 c 0,0 -7.055292,3.527512 -10.583333,5.291666 -3.52783,-2.65e-4 -7.055023,-2.65e-4 -10.583333,0 -2.204763,-0.882276 -6.614583,-2.645834 -6.614583,-2.645834 0,0 -2.645569,5.291402 -3.968751,7.937501 -2.645873,5.29201 -5.291402,10.583068 -7.9375,15.875 -1.322731,3.968722 -3.968749,11.906249 -3.968749,11.906249 0,0 4.409985,2.645566 6.614583,3.968747 4.409723,-2.6e-4 8.819709,-2.6e-4 13.229167,0 3.528042,-4.409983 7.05582,-8.819706 10.583333,-13.229163 0.882209,-6.173876 1.764154,-12.347487 2.645834,-18.520834 z"
       sodipodi:nodetypes="cccccccccccc" />
    <path
       style="fill:#000000;fill-opacity:1;stroke:#000000;stroke-width:0.26458332px;stroke-linecap:butt;stroke-linejoin:miter;stroke-opacity:1"
       d="m 71.437499,95.916667 c -1.763889,1.763888 -3.527513,3.527511 -6.614638,4.630093 -3.087124,1.10258 -7.495919,1.54346 -10.582961,1.5435 -3.087042,4e-5 -4.850824,-0.44091 -6.173847,-0.88191 -1.323023,-0.441 -2.204568,-0.88177 -3.08678,-1.322881 -0.882213,-0.441105 -1.763995,-0.881997 -2.64594,-1.322969 -0.881944,3.08681 -1.763799,6.1733 -2.645777,8.81926 -0.881978,2.64597 -1.763695,4.85026 -2.645798,8.37853 -0.882103,3.52827 -1.763883,8.37806 -2.866326,12.34699 -1.102442,3.96894 -2.425432,7.05591 -3.748349,10.14272 6.173611,1.32292 12.347421,2.64588 17.198148,1.54329 4.850728,-1.10258 8.378507,-4.63036 10.58328,-7.93767 2.204773,-3.30732 3.086718,-6.39413 3.748145,-10.14238 0.661427,-3.74824 1.1024,-8.15797 2.204896,-12.12674 1.102495,-3.96876 2.866385,-7.49654 4.132009,-9.26027 1.265624,-1.76373 2.262259,-1.76373 2.703098,-2.204703 0.44084,-0.440973 0.44084,-1.322916 0.44084,-2.20486 z"
       id="path905"
       inkscape:connector-curvature="0"
       inkscape:path-effect="#path-effect907"
       inkscape:original-d="m 71.437499,95.916667 c 0,0 -3.527512,3.527512 -5.291667,5.291663 -4.410119,0.44077 -8.818913,0.88166 -13.229165,1.32292 -1.763732,-0.44126 -3.527513,-0.88221 -5.291668,-1.32292 -0.881811,-0.4413 -1.763356,-0.88207 -2.645832,-1.322913 -0.881948,-0.441371 -2.645834,-1.322917 -2.645834,-1.322917 0,0 -1.763624,6.17335 -2.645833,9.26042 -0.881786,2.20486 -1.763502,4.40915 -2.645833,6.61458 -0.881802,4.8511 -1.763582,9.70089 -2.645834,14.55208 -1.322716,3.08669 -3.96875,9.26042 -3.96875,9.26042 0,0 12.347487,2.64557 18.520834,3.96875 3.528042,-3.52804 7.05582,-7.05582 10.583333,-10.58333 0.88221,-3.08707 1.764154,-6.17388 2.645833,-9.26042 0.441236,-4.40998 0.882209,-8.81971 1.322917,-13.22917 1.764154,-3.52804 3.528041,-7.05582 5.291666,-10.58333 0.767519,-0.404498 1.764154,-2.65e-4 2.645833,0 2.65e-4,-0.881946 0,-2.645833 0,-2.645833 z"
       sodipodi:nodetypes="ccccccccccccccccc" />
    <path
       style="fill:none;stroke:#000000;stroke-width:0.26458332px;stroke-linecap:butt;stroke-linejoin:miter;stroke-opacity:1"
       d="m 124.35417,175.29167 c 6.17368,-29.10448 12.34728,-58.20864 18.05839,-77.134467 5.71111,-18.925825 11.04614,-27.817538 17.66052,-37.518588 6.61437,-9.70105 14.55215,-20.284749 20.7258,-26.899274 6.17365,-6.614526 10.58306,-9.260175 14.99278,-11.906008 -2.64583,2.645834 -5.2914,5.291402 -10.20256,11.099587 -4.91115,5.808185 -11.84555,14.476187 -18.4604,24.177921 -6.61485,9.701734 -12.78806,20.284372 -17.19795,29.986043 -4.4099,9.70167 -7.05566,18.520856 -11.02442,33.072946 -3.96875,14.55208 -9.2605,34.83712 -14.55216,55.12184"
       id="path821"
       inkscape:connector-curvature="0"
       inkscape:path-effect="#path-effect823"
       inkscape:original-d="m 124.35417,175.29167 c 6.17387,-29.10444 12.34748,-58.2086 18.52083,-87.312503 5.24875,-8.747743 10.58378,-17.639454 15.875,-26.458334 7.93749,-10.583238 15.87527,-21.166933 23.8125,-31.75 4.40998,-2.646097 13.22916,-7.9375 13.22916,-7.9375 0,0 -5.2914,5.291403 -7.9375,7.937501 -7.17618,8.970298 -14.11058,17.6383 -21.16666,26.458333 -6.17357,10.583457 -12.34678,21.166092 -18.52083,31.75 -2.64565,8.819438 -5.29141,17.638623 -7.93751,26.458333 -5.2914,20.28446 -15.87499,60.85417 -15.87499,60.85417"
       sodipodi:nodetypes="cccccccccc" />
    <path
       style="fill:none;stroke:#000000;stroke-width:0.26458332px;stroke-linecap:butt;stroke-linejoin:miter;stroke-opacity:1"
       d="m 185.20833,74.75 c 3.8311,-2.896833 7.6625,-5.793889 11.49331,-8.6905 m 0.41294,-0.569917 c -3.08681,-1.322916 -6.17348,-2.645775 -6.3939,-4.630312 -0.22042,-1.984538 2.42542,-4.630373 4.59231,-8.485501 2.1669,-3.855129 4.00645,-9.373769 5.77034,-14.665436 -1.76389,0.881944 -3.52746,1.763728 -4.85048,2.20478 -1.32302,0.441053 -2.20481,0.441053 -1.76364,-1.764629 0.44117,-2.205681 2.20453,-6.614081 3.52748,-8.818782 1.32295,-2.204702 2.20496,-2.204702 1.76425,-2.204702 -0.44071,0 -2.20512,0 -2.64608,-0.882235 -0.44096,-0.882235 0.44085,-2.645863 0.44099,-3.086888 1.3e-4,-0.441026 -0.88198,0.44108 -3.96958,3.528679 -3.0876,3.087599 -8.37767,8.377674 -13.22852,14.551441 -4.85084,6.173766 -9.26033,13.228968 -13.44966,20.064183 -4.18933,6.835214 -8.1579,13.449504 -11.24473,19.182142 -3.08683,5.732638 -5.29169,10.583327 -7.31063,16.674594 -2.01895,6.091263 -3.71368,12.870183 -5.47764,19.044113 -1.76397,6.17393 -3.52776,11.46532 -4.85072,15.87514 -1.32295,4.40981 -2.20485,7.9374 -3.08679,10.58331 -0.88194,2.64591 -1.76397,4.40996 -2.64592,6.17385 3.52778,1.76389 7.05567,3.52784 11.02445,3.08678 3.96879,-0.44105 8.37864,-3.08697 11.46527,-7.93747 3.08662,-4.85051 4.85064,-11.90657 7.93745,-17.19811 3.08681,-5.29155 7.49645,-8.81925 11.90617,-12.34703 -1.76389,0 -3.5272,0 -3.9683,-0.88226 -0.44111,-0.88226 0.44068,-2.64583 0.88158,-3.52762 0.44089,-0.88179 3.08672,-3.52762 3.08672,-3.52762 0,0 5.29167,-5.29167 6.17368,-7.49669 0.882,-2.20502 2.64576,-6.614422 4.40965,-11.024143 -1.76389,0.881944 -3.52693,1.763466 -4.40929,2.204649 -0.88237,0.441184 4.40929,-4.850483 4.85031,-6.173558 0.44103,-1.323075 1.32297,-3.968911 1.32297,-5.732586 0,-1.763675 -0.88205,-2.645726 -1.76399,-3.527672"
       id="path825"
       inkscape:connector-curvature="0"
       inkscape:path-effect="#path-effect827"
       inkscape:original-d="m 185.20833,74.75 c 0,0 7.66247,-5.79393 11.49331,-8.6905 m 0.41294,-0.569917 c 0,0 -6.17334,-2.646096 -9.26042,-3.968749 2.6461,-2.646101 5.29194,-5.291931 7.9375,-7.9375 1.57501,-5.102434 5.29167,-15.875 5.29167,-15.875 0,0 -3.52751,1.763623 -5.29167,2.645833 -0.88183,-2.64e-4 -1.76362,-2.64e-4 -2.64583,0 1.76468,-4.41131 3.52804,-8.81971 5.29167,-13.229166 0.88214,-2.65e-4 1.76415,-2.65e-4 2.64583,0 -1.7631,-2.65e-4 -3.52751,-2.65e-4 -5.29167,0 0.88234,-1.764419 1.76416,-3.528044 2.64584,-5.291668 -0.88152,0.881521 -1.76363,1.763624 -2.64584,2.645833 -5.29299,5.292989 -10.58306,10.58307 -15.875,15.875001 -4.40967,7.055644 -8.81917,14.110846 -13.22916,21.166667 -3.96866,6.614607 -7.93723,13.228899 -11.90625,19.843749 -2.2046,4.850432 -4.40946,9.701122 -6.61459,14.552084 -1.83269,7.331563 -3.52742,14.110483 -5.29166,21.166663 -1.76372,5.29168 -3.52752,10.58307 -5.29167,15.875 -0.88172,3.5277 -1.76362,7.05529 -2.64583,10.58334 -0.88176,1.76377 -2.64584,5.29166 -2.64584,5.29166 0,0 7.05583,3.52752 10.58334,5.29167 4.40985,-2.64602 8.81971,-5.29193 13.22916,-7.9375 1.76403,-7.05532 3.52805,-14.11138 5.29167,-21.16667 4.40979,-3.52788 13.22917,-10.58333 13.22917,-10.58333 0,0 -3.5272,-2.6e-4 -5.29167,0 0.88237,-1.76447 1.76416,-3.52804 2.64584,-5.29167 L 174.625,106.5 l 5.29167,-5.29167 c 1.76415,-4.409986 5.29166,-13.229163 5.29166,-13.229163 0,0 -3.52698,1.76336 -5.29166,2.645833 l 5.29166,-5.291667 c 0.88221,-2.646096 1.76415,-5.291934 2.64583,-7.937499 -0.88157,-0.882103 -1.76362,-1.764153 -2.64583,-2.645834"
       sodipodi:nodetypes="ccccccccccccsccccccccccccccccccccc" />
  </g>
</svg>
